<?xml version="1.0" standalone="no"?>
<!DOCTYPE svg PUBLIC "-//W3C//DTD SVG 1.1//EN" "http://www.w3.org/Graphics/SVG/1.1/DTD/svg11.dtd" >
<svg>
<metadata>
Created by FontForge 20110222 at Thu Dec 22 18:27:27 2011
 By www-data
Copyright (c) 2011, TypeTogether (www.type-together.com), with Reserved Font Names "Bree" and "Bree Serif"
</metadata>
<defs>
<font id="BreeSerif-Regular" horiz-adv-x="535" >
  <font-face 
    font-family="Bree Serif"
    font-weight="400"
    font-stretch="normal"
    units-per-em="1000"
    panose-1="2 0 5 3 4 0 0 2 0 4"
    ascent="800"
    descent="-200"
    x-height="503"
    cap-height="665"
    bbox="-88 -242 1000 907"
    underline-thickness="50"
    underline-position="-50"
    stemh="87"
    stemv="119"
    unicode-range="U+0020-FB03"
  />
    <missing-glyph />
    <glyph glyph-name="space" unicode=" " horiz-adv-x="200" 
 />
    <glyph glyph-name="quotesingle" unicode="'" horiz-adv-x="205" 
d="M56 665h93l-10 -230h-73z" />
    <glyph glyph-name="quotedbl" unicode="&#x22;" horiz-adv-x="349" 
d="M56 665h93l-10 -230h-73zM199 665h93l-9 -230h-74z" />
    <glyph glyph-name="numbersign" unicode="#" horiz-adv-x="534" 
d="M289 0l13 157h-110l-13 -157h-73l13 157h-101v66h107l14 156h-102v66h107l15 160h73l-15 -160h110l15 160h73l-15 -160h101v-66h-106l-14 -156h101v-66h-107l-13 -157h-73zM212 379l-14 -156h110l14 156h-110z" />
    <glyph glyph-name="ampersand" unicode="&#x26;" horiz-adv-x="714" 
d="M475 220c11 28 19 62 19 92c0 12 -6 15 -18 16l-32 2v78h211v-81l-55 -2c0 -60 -13 -121 -42 -176c49 -41 101 -78 126 -96l-66 -87c-34 23 -79 56 -126 94c-47 -47 -120 -74 -206 -74c-172 0 -236 102 -236 203c0 98 53 165 122 208c-22 36 -31 74 -31 110
c0 98 69 170 193 170c68 0 122 -13 182 -41v-151l-102 -7v61c0 19 -3 29 -21 35c-17 5 -34 8 -53 8c-55 0 -81 -26 -81 -77c0 -84 118 -202 216 -285zM408 130c-66 56 -135 122 -181 184c-37 -26 -61 -66 -61 -117c0 -66 41 -114 123 -114c52 0 92 17 119 47z" />
    <glyph glyph-name="asterisk" unicode="*" horiz-adv-x="452" 
d="M179 557l-134 22l7 44c7 44 43 52 74 30l77 -54l-32 142l42 11c44 12 65 -18 58 -56l-18 -99l117 74l25 -36c26 -37 5 -70 -33 -73l-93 -8l108 -80l-25 -36c-26 -37 -62 -28 -80 6l-48 89l-68 -123l-40 19c-41 19 -37 58 -6 79z" />
    <glyph glyph-name="comma" unicode="," horiz-adv-x="241" 
d="M202 79l-103 -234l-63 19l31 203c4 30 21 50 49 50s52 -17 86 -38z" />
    <glyph glyph-name="hyphen" unicode="-" horiz-adv-x="322" 
d="M30 242v92h262v-92h-262z" />
    <glyph glyph-name="period" unicode="." horiz-adv-x="226" 
d="M40 56c0 41 27 72 71 72c48 0 75 -29 75 -71c0 -40 -26 -72 -71 -72c-50 0 -75 29 -75 71z" />
    <glyph glyph-name="colon" unicode=":" horiz-adv-x="226" 
d="M40 56c0 41 27 72 71 72c48 0 75 -29 75 -71c0 -40 -26 -72 -71 -72c-50 0 -75 29 -75 71zM40 424c0 41 27 72 71 72c48 0 75 -29 75 -71c0 -40 -26 -72 -71 -72c-50 0 -75 29 -75 71z" />
    <glyph glyph-name="semicolon" unicode=";" horiz-adv-x="241" 
d="M68 424c0 41 27 72 71 72c48 0 75 -29 75 -71c0 -40 -26 -72 -71 -72c-50 0 -75 29 -75 71zM202 79l-103 -234l-63 19l31 203c4 30 21 50 49 50s52 -17 86 -38z" />
    <glyph glyph-name="question" unicode="?" horiz-adv-x="433" 
d="M281 538c0 43 -28 63 -69 63c-15 0 -30 -2 -50 -8c-18 -5 -20 -16 -20 -35v-53l-102 7v137c52 25 113 46 184 46c121 0 173 -63 173 -151c0 -92 -48 -133 -107 -177c-35 -25 -51 -37 -53 -77l-5 -110h-96l-5 105c-4 76 22 109 80 153c36 27 70 44 70 100zM116 50
c0 36 28 66 67 66c44 0 70 -28 70 -65c0 -36 -25 -68 -67 -68c-45 0 -70 30 -70 67z" />
    <glyph glyph-name="exclam" unicode="!" horiz-adv-x="277" 
d="M84 529v119c0 25 14 47 55 47c44 0 57 -22 57 -49v-117l-20 -349h-71zM70 50c0 36 28 66 67 66c44 0 70 -28 70 -65c0 -36 -25 -68 -67 -68c-45 0 -70 30 -70 67z" />
    <glyph glyph-name="exclamdown" unicode="&#xa1;" horiz-adv-x="277" 
d="M193 -28v-119c0 -25 -14 -47 -55 -47c-44 0 -57 22 -57 49v117l20 349h71zM207 451c0 -36 -28 -66 -67 -66c-44 0 -70 28 -70 65c0 36 25 68 67 68c45 0 70 -30 70 -67z" />
    <glyph glyph-name="questiondown" unicode="&#xbf;" horiz-adv-x="433" 
d="M164 -37c0 -43 28 -63 69 -63c15 0 30 2 50 8c18 5 20 16 20 35v53l102 -7v-137c-52 -25 -113 -46 -184 -46c-121 0 -173 63 -173 151c0 92 48 133 107 177c35 25 51 37 53 77l5 110h96l5 -105c4 -76 -22 -109 -80 -153c-36 -27 -70 -44 -70 -100zM329 451
c0 -36 -28 -66 -67 -66c-44 0 -70 28 -70 65c0 36 25 68 67 68c45 0 70 -30 70 -67z" />
    <glyph glyph-name="at" unicode="@" horiz-adv-x="953" 
d="M798 284c0 168 -93 286 -298 286c-226 0 -341 -154 -341 -354c0 -194 107 -333 302 -333c54 0 107 8 158 31l25 -73c-51 -22 -113 -34 -186 -34c-277 0 -391 195 -391 405c0 284 191 436 439 436c223 0 379 -127 379 -361c0 -193 -105 -286 -249 -287h-57l-8 54l-3 1
c-20 -30 -53 -58 -118 -58c-126 0 -163 96 -163 204c0 153 77 244 217 244c29 0 91 -7 150 -29v-293l4 -53c77 5 140 56 140 214zM555 361c-11 5 -34 11 -57 11c-95 -1 -113 -85 -113 -168c0 -66 17 -133 88 -133c65 0 82 50 82 96v194z" />
    <glyph glyph-name="A" unicode="A" horiz-adv-x="662" 
d="M68 112l161 466l-63 6v81h229l204 -577h1l57 -3v-85h-258v81l38 3c21 2 31 8 24 30l-21 62h-234l-30 -88l60 -3v-85h-231v81l33 3c17 2 23 9 30 28zM323 553l-93 -285h186l-90 285h-3z" />
    <glyph glyph-name="B" unicode="B" horiz-adv-x="602" 
d="M39 665h282c113 0 216 -34 216 -167c0 -66 -38 -112 -92 -140c75 -19 126 -71 126 -159c0 -130 -90 -199 -256 -199h-281v81l33 3c17 2 29 8 29 28v465l-57 3v85zM218 303v-209h94c98 0 130 45 130 106c0 67 -46 103 -125 103h-99zM218 573v-181h74c86 0 121 40 121 93
c0 72 -49 88 -114 88h-81z" />
    <glyph glyph-name="C" unicode="C" horiz-adv-x="602" 
d="M419 570c-19 6 -45 8 -65 8c-126 0 -189 -90 -189 -241c0 -157 52 -254 191 -251c28 0 54 3 73 9c18 6 21 14 21 33v80l102 -7v-173c-55 -29 -134 -41 -198 -41c-203 0 -314 114 -314 342c0 261 160 348 314 348c59 0 128 -13 188 -41v-170l-102 -7v78c0 19 -3 27 -21 33
z" />
    <glyph glyph-name="D" unicode="D" horiz-adv-x="665" 
d="M34 0v81l33 3c17 2 29 8 29 28v465l-57 3v85h274c191 0 312 -101 312 -309c0 -262 -146 -356 -307 -356h-284zM218 568v-472h102c112 0 182 82 182 242c0 180 -87 230 -195 230h-89z" />
    <glyph glyph-name="E" unicode="E" horiz-adv-x="549" 
d="M509 0h-475v81l33 3c17 2 29 8 29 28v465l-57 3v85h458v-166l-102 -7v40c0 19 -2 31 -29 31h-148v-171h231v-102h-231v-187h161c26 0 28 12 28 32v50l102 -7v-178z" />
    <glyph glyph-name="F" unicode="F" horiz-adv-x="543" 
d="M34 0v81l33 3c17 2 29 8 29 28v465l-57 3v85h483v-166l-102 -7v40c0 19 -2 31 -29 31h-173v-177h246v-102h-246v-196l89 -3v-85h-273z" />
    <glyph glyph-name="G" unicode="G" horiz-adv-x="641" 
d="M564 233v-181c-55 -38 -137 -64 -230 -64c-181 0 -294 111 -294 343c0 259 175 346 319 346c67 0 136 -13 196 -41v-170l-102 -7v78c0 19 -3 27 -21 33c-19 6 -45 8 -74 8c-134 0 -193 -90 -193 -239c0 -157 52 -252 174 -252c39 0 86 11 106 24v149h-1l-77 3v85h249v-80
l-23 -2c-21 -2 -29 -9 -29 -33z" />
    <glyph glyph-name="H" unicode="H" horiz-adv-x="712" 
d="M499 117v173h-283v-202l58 -3v-85h-242v81l33 3c17 2 29 8 29 28v465l-57 3v85h242v-81l-33 -3c-19 -2 -30 -8 -30 -33v-155h283v184l-57 3v85h242v-81l-33 -3c-17 -2 -29 -8 -29 -32v-461l57 -3v-85h-242v81l33 3c19 2 29 8 29 33z" />
    <glyph glyph-name="I" unicode="I" horiz-adv-x="307" 
d="M94 117v460l-57 3v85h242v-81l-33 -3c-17 -2 -29 -8 -29 -32v-461l57 -3v-85h-242v81l33 3c19 2 29 8 29 33z" />
    <glyph glyph-name="J" unicode="J" horiz-adv-x="474" 
d="M204 -13c-64 0 -125 13 -176 42v175l102 7v-79c0 -19 3 -27 21 -34c16 -6 31 -8 52 -8c54 0 72 28 72 91v395l-78 4v85h262v-81l-33 -3c-20 -2 -29 -11 -29 -31v-311c0 -31 0 -71 -4 -105c-10 -91 -70 -147 -189 -147z" />
    <glyph glyph-name="K" unicode="K" horiz-adv-x="622" 
d="M94 117v460l-57 3v85h240v-81l-33 -3c-17 -2 -29 -8 -29 -32v-220l204 248l-56 3v85h234v-81l-33 -3c-16 -2 -26 -11 -40 -28l-142 -174l177 -291l53 -3v-85h-256v81l31 3c19 2 26 11 15 32l-99 171l-88 -106v-93l57 -3v-85h-240v81l33 3c19 2 29 8 29 33z" />
    <glyph glyph-name="L" unicode="L" horiz-adv-x="537" 
d="M507 0h-475v81l33 3c17 2 29 8 29 28v465l-57 3v85h241v-81l-33 -3c-17 -2 -29 -8 -29 -32v-446h166c21 0 23 13 23 32v70l102 -7v-198z" />
    <glyph glyph-name="M" unicode="M" horiz-adv-x="834" 
d="M248 665l170 -452h2l171 452h198v-81l-33 -3c-18 -2 -30 -8 -29 -35l25 -458l62 -3v-85h-241v81l36 3c16 1 27 7 26 26l-19 353h-2l-154 -399h-95l-152 395h-2l-20 -371l65 -3v-85h-236v81l36 3c14 1 24 11 25 27l27 465l-61 4v85h201z" />
    <glyph glyph-name="N" unicode="N" horiz-adv-x="705" 
d="M32 0v81l36 3c17 1 26 8 26 28v465l-57 3v85h180l283 -459h2v371l-66 3v85h244v-81l-36 -3c-15 -1 -24 -10 -24 -31v-550h-117l-289 466h-2v-378l65 -3v-85h-245z" />
    <glyph glyph-name="O" unicode="O" horiz-adv-x="664" 
d="M624 331c0 -229 -119 -344 -294 -344c-178 0 -290 116 -290 344c0 256 161 346 301 346c149 0 283 -92 283 -346zM165 336c0 -114 28 -248 172 -248c127 0 163 120 163 240c0 102 -27 246 -165 246c-128 0 -170 -119 -170 -238z" />
    <glyph glyph-name="P" unicode="P" horiz-adv-x="590" 
d="M32 0v81l33 3c17 2 29 8 29 28v465l-57 3v85h286c147 0 237 -70 237 -204c0 -152 -108 -228 -259 -228h-85v-145l96 -3v-85h-280zM216 330h72c87 0 146 30 146 119c0 103 -59 119 -157 119h-61v-238z" />
    <glyph glyph-name="Q" unicode="Q" horiz-adv-x="664" 
d="M623 331c0 -172 -74 -286 -212 -322v-3c132 -7 160 -91 295 -75l-12 -96c-146 -15 -240 89 -354 97c-23 2 -49 1 -77 -5l14 72c-154 20 -238 128 -238 332c0 256 161 346 301 346c149 0 283 -92 283 -346zM164 336c0 -114 28 -248 172 -248c127 0 163 120 163 240
c0 102 -27 246 -165 246c-128 0 -170 -119 -170 -238z" />
    <glyph glyph-name="R" unicode="R" horiz-adv-x="626" 
d="M32 0v81l33 3c17 2 29 8 29 28v465l-57 3v85h273c147 0 240 -48 240 -184c0 -100 -65 -154 -120 -176c27 -10 42 -27 57 -61l72 -157l57 -2v-85h-247v81l29 3c23 3 28 12 19 32l-47 100c-14 31 -28 46 -63 46h-91v-174l65 -3v-85h-249zM216 357h87c85 0 123 39 123 110
c0 90 -52 101 -137 101h-73v-211z" />
    <glyph glyph-name="S" unicode="S" horiz-adv-x="522" 
d="M241 90c66 0 120 21 120 96c0 63 -57 81 -127 100c-99 27 -191 67 -191 195c0 122 94 196 232 196c66 0 128 -13 188 -41v-150l-102 -7v58c0 19 -3 27 -21 33c-19 6 -45 8 -65 8c-59 0 -105 -24 -105 -86s58 -79 133 -102c91 -29 187 -70 187 -199
c0 -132 -104 -204 -242 -204c-80 0 -142 13 -202 41v158l102 7v-61c0 -19 3 -27 21 -33c19 -6 45 -9 72 -9z" />
    <glyph glyph-name="T" unicode="T" horiz-adv-x="553" 
d="M218 112v454h-78c-21 0 -23 -14 -23 -31v-47l-102 7v170h523v-170l-102 -7v47c0 19 -2 31 -29 31h-68v-478l79 -3v-85h-282v81l53 3c19 2 29 8 29 28z" />
    <glyph glyph-name="U" unicode="U" horiz-adv-x="659" 
d="M201 548v-332c0 -98 51 -127 131 -127s130 40 130 122v366l-58 3v85h237v-81l-33 -3c-18 -2 -29 -10 -29 -30v-357c0 -131 -99 -207 -251 -207c-164 0 -248 66 -248 223v367l-58 3v85h242v-81l-33 -3c-19 -2 -30 -8 -30 -33z" />
    <glyph glyph-name="V" unicode="V" horiz-adv-x="654" 
d="M201 546l134 -403h5l140 433l-61 4v85h230v-81l-33 -3c-18 -2 -24 -10 -31 -30l-189 -551h-130l-204 577l-57 3v85h258v-81l-33 -3c-22 -2 -36 -11 -29 -35z" />
    <glyph glyph-name="W" unicode="W" horiz-adv-x="885" 
d="M880 584l-33 -3c-21 -2 -28 -13 -33 -36l-126 -545h-137l-105 445h-3l-102 -445h-141l-138 577l-57 3v85h248v-81l-33 -3c-22 -2 -35 -11 -30 -35l87 -386h4l104 452h129l108 -454h2l85 418l-54 4v85h225v-81z" />
    <glyph glyph-name="X" unicode="X" horiz-adv-x="621" 
d="M521 549l-143 -193l175 -264l63 -4v-88h-278v82l30 3c26 3 36 20 24 38l-90 139l-115 -174l48 -3v-85h-230v81l31 3c15 2 25 12 38 32l162 232l-152 224l-55 5v88h265v-82l-25 -3c-28 -3 -35 -21 -22 -41l67 -105l97 143l-50 3v85h229v-81l-31 -3c-15 -2 -25 -12 -38 -32
z" />
    <glyph glyph-name="Y" unicode="Y" horiz-adv-x="570" 
d="M222 112v142l-170 323l-47 3v85h244v-81l-30 -3c-22 -2 -28 -18 -17 -39l85 -174h4l109 208l-50 4v85h215v-81l-30 -3c-16 -2 -24 -12 -34 -30l-157 -297v-166l78 -3v-85h-282v81l53 3c19 1 29 8 29 28z" />
    <glyph glyph-name="Z" unicode="Z" horiz-adv-x="533" 
d="M477 584l-305 -489h194c21 0 25 13 25 32v70l102 -7v-190h-460v83l302 487h-166c-21 0 -27 -14 -27 -31v-40l-102 7v159h437v-81z" />
    <glyph glyph-name="a" unicode="a" horiz-adv-x="567" 
d="M482 483v-372c0 -22 6 -28 25 -29l32 -2v-80h-159v58l-3 1c-31 -45 -82 -72 -137 -72c-141 0 -200 100 -200 243c0 176 84 288 264 288c33 0 106 -8 178 -35zM366 159v259c-15 7 -46 13 -77 13c-95 0 -127 -89 -127 -197c0 -83 20 -162 104 -162c62 0 100 44 100 87z" />
    <glyph glyph-name="b" unicode="b" horiz-adv-x="556" 
d="M77 30v574c0 17 -8 23 -25 24l-35 2v83h176v-237c28 26 74 42 121 42c124 0 204 -86 204 -242c0 -195 -81 -289 -242 -289c-70 0 -157 19 -199 43zM193 354v-259c19 -10 55 -20 88 -20c70 0 114 48 114 185c0 78 -19 169 -112 169c-46 0 -90 -30 -90 -75z" />
    <glyph glyph-name="c" unicode="c" horiz-adv-x="471" 
d="M283 78c39 0 74 13 115 43l43 -77c-39 -32 -100 -58 -174 -58c-147 0 -234 93 -234 259c0 203 125 273 238 273c60 0 108 -15 156 -41v-130l-92 -7v48c0 19 -3 28 -21 34c-12 4 -24 6 -39 6c-80 0 -121 -60 -121 -171c0 -109 40 -179 129 -179z" />
    <glyph glyph-name="d" unicode="d" horiz-adv-x="568" 
d="M284 518c35 0 59 -5 82 -12v101c0 17 -9 23 -26 24l-43 3v79h186v-608c1 -17 8 -23 25 -23l35 -2v-80h-162v59l-3 1c-31 -50 -81 -73 -136 -73c-156 0 -202 120 -202 245c0 171 88 286 244 286zM366 156v259c-18 8 -45 16 -76 16c-95 0 -127 -90 -127 -188
c0 -91 22 -168 108 -168c56 0 95 37 95 81z" />
    <glyph glyph-name="e" unicode="e" horiz-adv-x="484" 
d="M284 518c98 0 163 -50 163 -139c0 -154 -167 -180 -285 -181c4 -65 38 -118 123 -118c59 0 102 27 126 44l38 -81c-16 -14 -82 -56 -176 -56c-170 0 -236 104 -236 253c0 148 83 278 247 278zM337 377c0 37 -24 56 -60 56c-80 0 -116 -77 -119 -151c74 1 179 18 179 95z
" />
    <glyph glyph-name="f" unicode="f" horiz-adv-x="370" 
d="M96 112v307h-86v84h86v38c0 80 18 182 173 182c44 0 105 -16 139 -35l-29 -80c-29 15 -67 25 -95 25c-50 0 -69 -28 -69 -83v-47h148v-84h-148v-335l84 -4v-80h-265v76l33 3c19 2 29 8 29 33z" />
    <glyph glyph-name="g" unicode="g" horiz-adv-x="544" 
d="M247 -214c-63 0 -146 12 -188 33v139l95 8v-48c0 -19 5 -29 23 -36c19 -7 41 -10 71 -10c92 0 116 63 116 147v55c-34 -40 -84 -56 -133 -56c-146 0 -196 120 -196 234c0 181 109 266 260 266c48 0 126 -12 185 -37v-371c0 -35 1 -73 -2 -109
c-12 -147 -81 -215 -231 -215zM364 204v215c-23 8 -52 12 -80 12c-83 0 -126 -66 -126 -167c0 -68 11 -158 104 -158c56 0 102 37 102 98z" />
    <glyph glyph-name="h" unicode="h" horiz-adv-x="600" 
d="M94 112v487c0 22 -6 28 -25 29l-35 2v83h178v-269c30 43 80 74 146 74c100 0 159 -56 159 -174v-261l57 -3v-80h-238v76l33 3c19 2 29 8 29 33v206c0 61 -14 108 -78 108c-70 0 -107 -49 -107 -101v-242l57 -3v-80h-238v76l33 3c19 2 29 8 29 33z" />
    <glyph glyph-name="i" unicode="i" horiz-adv-x="296" 
d="M214 503v-420l57 -3v-80h-238v76l33 3c18 2 29 8 29 32v278c0 22 -6 29 -25 29l-35 2v83h179zM67 642c0 42 30 75 77 75c44 0 76 -33 76 -75s-32 -73 -77 -73c-46 0 -76 31 -76 73z" />
    <glyph glyph-name="j" unicode="j" horiz-adv-x="283" 
d="M208 503v-527c0 -96 -18 -190 -160 -190c-41 0 -93 13 -128 35l36 83c24 -13 48 -21 74 -21c38 0 59 22 59 88v418c0 22 -6 28 -25 29l-35 2v83h179zM61 642c0 42 30 75 77 75c44 0 76 -33 76 -75s-32 -73 -77 -73c-46 0 -76 31 -76 73z" />
    <glyph glyph-name="k" unicode="k" horiz-adv-x="556" 
d="M95 112v487c0 22 -6 28 -25 29l-35 2v83h178v-433c71 7 131 45 152 110c8 24 -2 33 -16 33l-38 2v78h207v-81l-48 -2c-9 -69 -36 -120 -88 -161l98 -176l61 -3v-80h-146l-114 208c-21 -6 -45 -11 -68 -14v-111h1l57 -3v-80h-238v76l33 3c19 2 29 8 29 33z" />
    <glyph glyph-name="l" unicode="l" horiz-adv-x="298" 
d="M212 713v-630l57 -3v-80h-238v76l33 3c18 2 29 8 29 32v493c0 18 -10 23 -25 24l-35 2v83h179z" />
    <glyph glyph-name="m" unicode="m" horiz-adv-x="866" 
d="M27 422v81h169v-65c35 50 86 80 152 80c64 0 110 -26 133 -80c35 50 86 80 152 80c94 0 150 -56 150 -174v-261l57 -3v-80h-238v76l33 3c18 2 28 8 29 32v207c0 61 -5 108 -69 108c-67 0 -97 -44 -97 -103v-240l55 -3v-80h-236v76l33 3c19 2 29 8 29 33v206
c0 61 -5 108 -69 108c-70 0 -97 -49 -97 -101v-242l54 -3v-80h-236v76l33 3c19 2 29 8 29 33h1v276c0 22 -6 30 -25 31z" />
    <glyph glyph-name="n" unicode="n" horiz-adv-x="600" 
d="M27 423v80h169v-65c35 50 96 80 162 80c100 0 159 -56 159 -174v-261l57 -3v-80h-238v76l33 3c19 2 29 8 29 33v206c0 66 -14 108 -82 108c-66 0 -103 -49 -103 -101v-242l57 -3v-80h-238v76l33 3c19 2 29 8 29 33v277c0 22 -7 30 -25 31z" />
    <glyph glyph-name="o" unicode="o" horiz-adv-x="528" 
d="M263 73c78 0 109 72 109 176c0 112 -27 181 -107 181c-79 0 -111 -68 -111 -164c0 -93 13 -193 109 -193zM33 252c0 208 135 266 238 266c74 0 223 -23 223 -253c0 -192 -107 -280 -239 -280c-134 0 -222 86 -222 267z" />
    <glyph glyph-name="p" unicode="p" horiz-adv-x="568" 
d="M89 -95v484c0 22 -6 30 -25 30l-42 3v81h169v-65c18 34 73 80 158 80c111 0 181 -75 181 -254c0 -184 -87 -279 -219 -279c-39 0 -81 13 -107 29v-138l81 -4v-79h-258v76l33 3c19 2 29 8 29 33zM406 254c0 133 -48 167 -101 167c-57 0 -101 -40 -101 -86v-230
c26 -17 62 -25 88 -25c85 0 114 87 114 174z" />
    <glyph glyph-name="q" unicode="q" horiz-adv-x="551" 
d="M367 -95v138c-34 -40 -84 -56 -133 -56c-146 0 -194 130 -194 243c0 203 107 288 258 288c48 0 126 -12 185 -37v-605l58 -3v-80h-263v76l59 3c19 1 30 8 30 33zM366 164v255c-23 8 -51 12 -79 12c-83 0 -124 -80 -124 -185c0 -71 9 -171 105 -171c56 0 98 29 98 89z" />
    <glyph glyph-name="r" unicode="r" horiz-adv-x="462" 
d="M95 112v277c0 22 -6 29 -25 30l-42 3v81h169v-75c23 50 76 90 142 90c33 0 63 -6 96 -22v-149l-93 -7v46c0 12 -2 21 -10 25c-9 4 -16 5 -27 5c-54 0 -91 -43 -91 -101v-232l87 -4v-79h-268v76l33 3c19 2 29 8 29 33z" />
    <glyph glyph-name="s" unicode="s" horiz-adv-x="451" 
d="M295 427c-19 7 -34 9 -58 9c-43 0 -75 -20 -75 -60c0 -46 48 -60 95 -73c78 -22 164 -47 164 -156c0 -104 -86 -160 -193 -160c-63 0 -142 10 -184 31v139l90 7v-48c0 -19 5 -27 23 -34c19 -7 42 -10 66 -10c50 0 79 19 79 61c0 48 -44 57 -98 71
c-74 19 -155 44 -155 155c0 104 88 159 193 159c68 0 127 -21 166 -40v-120l-90 -7v42c0 19 -5 27 -23 34z" />
    <glyph glyph-name="t" unicode="t" horiz-adv-x="377" 
d="M144 609h65v-106h133l-10 -84h-123v-263c0 -61 24 -79 65 -79c27 0 52 11 68 21l30 -77c-30 -21 -80 -35 -127 -35c-156 0 -155 96 -155 166v267h-71l10 73c70 6 94 60 115 117z" />
    <glyph glyph-name="u" unicode="u" horiz-adv-x="591" 
d="M563 79v-79h-162v65c-35 -50 -96 -78 -162 -78c-100 0 -155 55 -155 173v231c0 21 -8 27 -25 28l-32 2v82h176v-317c0 -61 10 -107 74 -107c70 0 107 47 107 99v211c0 22 -6 29 -25 30l-32 2v82h176v-392c0 -22 6 -27 25 -29z" />
    <glyph glyph-name="v" unicode="v" horiz-adv-x="558" 
d="M337 503h211v-78l-31 -2c-13 -1 -21 -5 -27 -24l-129 -399h-153l-140 398c-6 18 -11 24 -29 25l-29 2v78h235v-80l-61 -3l103 -329h2l100 329l-52 3v80z" />
    <glyph glyph-name="w" unicode="w" horiz-adv-x="795" 
d="M364 483h97l104 -372h2l68 309l-51 3v80h201v-77l-33 -2c-13 -1 -21 -5 -27 -24l-95 -400h-144l-82 298h-3l-85 -298h-147l-101 399c-6 18 -11 24 -29 25l-29 2v77h229v-80l-56 -3l69 -307h2z" />
    <glyph glyph-name="x" unicode="x" horiz-adv-x="534" 
d="M319 106l-61 80l-83 -103l47 -3v-80h-208v79l31 3c17 2 27 8 40 24l115 144l-123 170l-51 6v77h233v-79l-29 -2c-16 -1 -21 -14 -12 -26l57 -76l77 100l-41 3v80h203v-78l-30 -2c-17 -1 -27 -9 -40 -25l-110 -139l131 -174l51 -6v-79h-238v79l31 2c19 1 19 13 10 25z" />
    <glyph glyph-name="y" unicode="y" horiz-adv-x="573" 
d="M401 19v76c-35 -50 -96 -78 -162 -78c-100 0 -155 55 -155 173v201c0 21 -8 27 -25 28l-32 2v82h176v-287c0 -61 10 -107 74 -107c70 0 107 47 107 99v181c0 22 -6 30 -25 30l-32 2v82h176v-484c0 -165 -83 -233 -232 -233c-63 0 -146 12 -188 33v139l95 8v-48
c0 -19 5 -29 23 -36c19 -7 41 -10 71 -10c92 0 129 56 129 147z" />
    <glyph glyph-name="z" unicode="z" horiz-adv-x="483" 
d="M448 0h-408v76l257 338h-126c-30 0 -32 -13 -32 -34v-35l-94 7v151h398v-68l-260 -345h142c24 0 29 14 29 34v42l94 -7v-159z" />
    <glyph glyph-name="bracketleft" unicode="[" horiz-adv-x="325" 
d="M80 -166v880h210v-81h-100v-718h100v-81h-210z" />
    <glyph glyph-name="bracketright" unicode="]" horiz-adv-x="325" 
d="M245 714v-880h-210v81h100v718h-100v81h210z" />
    <glyph glyph-name="parenleft" unicode="(" horiz-adv-x="331" 
d="M69 271c0 149 48 311 132 458l95 -44c-70 -138 -109 -268 -109 -409c0 -142 40 -269 108 -407l-94 -45c-86 146 -132 298 -132 447z" />
    <glyph glyph-name="parenright" unicode=")" horiz-adv-x="331" 
d="M262 284c0 -149 -48 -311 -132 -458l-95 44c70 138 109 268 109 409c0 142 -40 269 -108 407l94 45c86 -146 132 -298 132 -447z" />
    <glyph glyph-name="braceleft" unicode="{" horiz-adv-x="340" 
d="M148 281c52 -18 66 -49 66 -121c0 -46 -11 -130 -11 -176s6 -75 50 -75c11 0 23 1 39 5l10 -76c-28 -6 -58 -9 -79 -9c-82 0 -128 50 -128 127c0 58 6 114 10 170c4 72 -6 111 -62 118v74c56 7 67 39 64 119c-2 48 -6 104 -8 142c-4 94 46 140 126 140c22 0 52 -3 80 -10
l-10 -74c-17 3 -29 5 -40 5c-44 0 -50 -23 -50 -70c0 -45 9 -117 9 -163c0 -66 -16 -106 -66 -126z" />
    <glyph glyph-name="braceright" unicode="}" horiz-adv-x="340" 
d="M192 281c-50 20 -66 60 -66 126c0 46 9 118 9 163c0 47 -6 70 -50 70c-11 0 -23 -2 -40 -5l-10 74c28 7 58 10 80 10c80 0 130 -46 126 -140c-2 -38 -6 -94 -8 -142c-3 -80 8 -112 64 -119v-74c-56 -7 -66 -46 -62 -118c4 -56 10 -112 10 -170c0 -77 -46 -127 -128 -127
c-21 0 -51 3 -79 9l10 76c16 -4 28 -5 39 -5c44 0 50 29 50 75s-11 130 -11 176c0 72 14 103 66 121z" />
    <glyph glyph-name="backslash" unicode="\" horiz-adv-x="440" 
d="M15 718l103 38l307 -828l-103 -37z" />
    <glyph glyph-name="slash" unicode="/" horiz-adv-x="428" 
d="M110 -110l-102 38l306 827l104 -37z" />
    <glyph glyph-name="brokenbar" unicode="&#xa6;" horiz-adv-x="275" 
d="M85 -88v374h105v-374h-105zM85 403v344h105v-344h-105z" />
    <glyph glyph-name="bar" unicode="|" horiz-adv-x="274" 
d="M85 -88v835h104v-835h-104z" />
    <glyph glyph-name="asciicircum" unicode="^" horiz-adv-x="553" 
d="M509 301l-101 -16l-130 267l-131 -267l-98 17l187 372h87z" />
    <glyph glyph-name="underscore" unicode="_" horiz-adv-x="500" 
d="M0 -147v73h500v-73h-500z" />
    <glyph glyph-name="asciitilde" unicode="~" horiz-adv-x="598" 
d="M405 218c-85 0 -147 73 -202 73c-33 0 -58 -26 -84 -65l-72 56c38 64 83 106 146 106c81 0 140 -76 204 -76c31 0 56 19 81 64l73 -54c-36 -77 -92 -104 -146 -104z" />
    <glyph glyph-name="uni00A0" unicode="&#xa0;" horiz-adv-x="207" 
 />
    <glyph glyph-name="zero" unicode="0" 
d="M272 657c140 0 227 -93 227 -329c0 -237 -82 -338 -234 -338c-153 0 -230 101 -230 334c0 230 94 333 237 333zM267 86c66 0 113 50 113 240c0 182 -45 233 -111 233c-70 0 -113 -57 -113 -246c0 -173 43 -227 111 -227z" />
    <glyph glyph-name="one" unicode="1" horiz-adv-x="454" 
d="M205 121v393l-117 -60l-44 77l182 113h98v-554l104 -5v-85h-348v82l96 6c19 1 29 8 29 33z" />
    <glyph glyph-name="two" unicode="2" horiz-adv-x="513" 
d="M59 0v77l199 251c47 60 70 86 70 143c0 58 -37 86 -84 86c-28 0 -45 -3 -60 -8c-18 -6 -20 -16 -20 -35v-71l-102 7v160c52 26 126 47 202 47c123 0 190 -72 190 -178c0 -66 -32 -126 -85 -190l-161 -190h250v-99h-399z" />
    <glyph glyph-name="three" unicode="3" horiz-adv-x="522" 
d="M167 373h103c35 22 60 56 60 107c0 49 -29 77 -87 77c-28 0 -47 -5 -62 -10c-18 -6 -20 -16 -20 -35v-72l-102 7v160c52 26 124 50 204 50c127 0 189 -69 189 -160c0 -72 -39 -130 -91 -163c82 -26 101 -89 101 -142c0 -117 -70 -205 -226 -205c-78 0 -157 25 -196 50
l35 95c43 -24 107 -44 157 -44c64 0 109 26 109 97c0 64 -37 97 -145 97h-38z" />
    <glyph glyph-name="four" unicode="4" horiz-adv-x="536" 
d="M347 462h70v-187h89v-95h-90v-90l83 -5v-85h-294v82l62 5c17 1 29 7 29 28v66h-256v83l188 395l95 -47l-161 -337h143v54z" />
    <glyph glyph-name="five" unicode="5" horiz-adv-x="507" 
d="M442 549h-229l-20 -153c136 -10 253 -67 253 -208c0 -94 -57 -199 -222 -199c-80 0 -157 26 -195 50l40 92c38 -21 91 -43 150 -43c76 0 102 42 102 98c0 109 -140 122 -239 122l43 336h199c18 0 23 12 23 28v43l95 -7v-159z" />
    <glyph glyph-name="six" unicode="6" horiz-adv-x="534" 
d="M395 671l23 -90c-158 -20 -224 -101 -239 -212c37 24 92 41 136 41c111 0 174 -75 174 -194c0 -128 -72 -227 -218 -227c-158 0 -217 124 -217 287c0 184 71 365 341 395zM372 211c0 78 -32 114 -89 114c-36 0 -88 -20 -111 -39c-4 -116 23 -205 103 -205
c56 0 97 47 97 130z" />
    <glyph glyph-name="seven" unicode="7" horiz-adv-x="475" 
d="M23 644h432v-83l-229 -561h-125l235 545h-189c-17 0 -22 -11 -22 -31v-40l-102 7v163z" />
    <glyph glyph-name="eight" unicode="8" 
d="M47 159c0 93 72 153 122 182c-47 29 -101 74 -101 149c0 94 79 167 203 167c139 0 192 -75 192 -150c0 -67 -45 -118 -95 -160c74 -43 122 -101 122 -174c0 -97 -68 -184 -227 -184c-167 0 -216 92 -216 170zM362 170c0 59 -49 91 -111 123c-47 -31 -87 -66 -87 -126
c0 -45 32 -87 99 -87c62 0 99 34 99 90zM267 572c-47 0 -83 -33 -83 -75c0 -47 42 -81 95 -108c35 24 73 67 73 112c0 44 -35 71 -85 71z" />
    <glyph glyph-name="nine" unicode="9" 
d="M139 -12l-24 93c155 18 231 82 246 193c-38 -25 -87 -38 -138 -38c-111 0 -173 75 -173 194c0 127 74 227 220 227c158 0 214 -125 214 -287c0 -185 -74 -358 -345 -382zM167 434c0 -69 31 -111 88 -111c37 0 89 18 112 37c3 115 -23 204 -101 204
c-59 0 -99 -46 -99 -130z" />
    <glyph glyph-name="cent" unicode="&#xa2;" 
d="M270 -60v110c-119 18 -195 104 -195 251c0 172 96 248 195 268v116h75v-112c51 -3 97 -18 139 -40v-130l-92 -7v48c0 19 -3 28 -21 34c-8 2 -17 4 -26 5v-344c35 2 67 15 105 43l43 -77c-35 -28 -86 -52 -148 -57v-108h-75zM196 313c0 -80 23 -137 74 -161v320
c-48 -23 -74 -77 -74 -159z" />
    <glyph glyph-name="sterling" unicode="&#xa3;" horiz-adv-x="552" 
d="M116 210l6 79h-84l10 84h80l6 86c11 153 110 198 219 198c58 0 127 -18 170 -41v-140l-102 -7v47c0 19 -2 27 -20 34c-14 6 -30 9 -47 9c-68 0 -99 -32 -104 -109l-6 -77h175l-10 -83h-170l-3 -41c-4 -61 -41 -111 -87 -146l2 -4c27 10 51 20 84 20c56 0 101 -20 171 -20
c28 0 59 4 94 14l-13 -107c-32 -6 -62 -9 -87 -9c-96 0 -151 25 -242 25c-39 0 -86 -12 -126 -30v93c41 19 79 57 84 125z" />
    <glyph glyph-name="dollar" unicode="$" 
d="M230 -91v100c-66 2 -120 14 -172 38v149l99 7v-58c0 -18 3 -25 20 -31c14 -5 33 -8 53 -8v187c-92 25 -175 64 -175 180c0 100 69 167 175 182v92h75v-90c54 -3 106 -15 155 -38v-141l-98 -6v54c0 18 -3 25 -20 31c-11 3 -24 6 -37 7v-176h1c88 -27 180 -66 180 -187
c0 -108 -75 -173 -181 -189v-103h-75zM362 196c0 38 -23 59 -57 73v-156c34 11 57 36 57 83zM178 484c0 -36 20 -55 52 -70v144c-32 -11 -52 -34 -52 -74z" />
    <glyph glyph-name="yen" unicode="&#xa5;" horiz-adv-x="550" 
d="M59 296v76h113l-120 205l-47 3v85h244v-81l-30 -3c-22 -2 -28 -18 -17 -39l75 -154h4l99 188l-50 4v85h215v-81l-30 -3c-16 -2 -24 -12 -34 -30l-107 -179h113v-76h-153v-65h153v-76h-153v-67l78 -3v-85h-282v81l53 3c19 1 29 8 29 28v43h-153v76h153v65h-153z" />
    <glyph glyph-name="Euro" unicode="&#x20ac;" horiz-adv-x="561" 
d="M359 558c-76 0 -119 -59 -126 -131h212v-82h-405v82h71c16 158 127 230 254 230c58 0 128 -18 171 -41v-140l-102 -7v47c0 19 -3 26 -21 33c-15 6 -32 9 -54 9zM40 206v82h405v-82h-210c16 -76 54 -117 131 -117c42 0 83 15 121 47l57 -80c-51 -46 -120 -68 -190 -68
c-133 0 -217 68 -243 218h-71z" />
    <glyph glyph-name="florin" unicode="&#x192;" horiz-adv-x="547" 
d="M77 294l15 95h109l13 75c19 109 49 193 196 193c45 0 103 -15 141 -35l-40 -80c-30 16 -68 26 -93 26c-48 0 -70 -24 -80 -76l-19 -103h148l-17 -95h-147l-53 -306c-19 -113 -54 -198 -201 -198c-44 0 -99 14 -137 35l40 79c30 -16 68 -25 93 -25c47 0 71 24 80 76
l59 339h-107z" />
    <glyph glyph-name="section" unicode="&#xa7;" horiz-adv-x="552" 
d="M407 35c8 -21 13 -44 13 -73c0 -63 -33 -167 -181 -167c-63 0 -110 14 -158 39v132l92 7v-48c0 -19 3 -29 21 -35c10 -3 21 -5 36 -5c55 0 81 28 81 68c0 62 -62 92 -131 133c-89 52 -137 99 -137 182c0 55 28 111 84 159c-9 20 -13 44 -13 73c0 63 33 167 181 167
c63 0 110 -16 158 -41v-130l-92 -7v48c0 19 -3 29 -21 35c-10 3 -21 5 -36 5c-55 0 -81 -28 -81 -68c0 -62 63 -90 131 -133c75 -48 135 -99 135 -186c0 -51 -26 -107 -82 -155zM265 168c32 -22 62 -40 87 -61c18 16 29 43 29 66c0 53 -38 72 -112 121c-33 21 -63 40 -87 61
c-18 -17 -29 -43 -29 -66c0 -53 38 -72 112 -121z" />
    <glyph glyph-name="copyright" unicode="&#xa9;" horiz-adv-x="814" 
d="M753 332c0 -200 -145 -352 -351 -352c-212 0 -342 144 -342 346c0 195 141 350 342 350c207 0 351 -155 351 -344zM674 329c0 157 -117 275 -271 275c-158 0 -264 -121 -264 -278c0 -168 110 -274 264 -274c156 0 271 117 271 277zM409 198c41 0 68 19 96 42l40 -54
c-28 -29 -75 -56 -138 -56c-118 0 -175 79 -175 201c0 155 101 199 173 199c62 0 114 -26 150 -75l-56 -44c-24 26 -52 50 -96 50s-91 -30 -91 -129c0 -83 30 -134 97 -134z" />
    <glyph glyph-name="registered" unicode="&#xae;" horiz-adv-x="463" 
d="M287 459l36 -81h-50l-31 70c-4 9 -8 14 -16 14h-19v-84h-45v211h76c43 0 70 -18 70 -57c0 -31 -15 -49 -34 -58c7 -3 11 -10 13 -15zM207 498h16c23 0 36 8 36 30s-15 25 -36 25h-16v-55zM433 483c0 -115 -84 -197 -204 -197c-123 0 -199 82 -199 195
c0 112 82 196 199 196c120 0 204 -84 204 -194zM380 481c0 87 -64 150 -151 150c-89 0 -146 -63 -146 -150c0 -89 61 -150 146 -150c88 0 151 59 151 150z" />
    <glyph glyph-name="trademark" unicode="&#x2122;" horiz-adv-x="779" 
d="M141 395v206h-34c-11 0 -12 -7 -12 -16v-20l-56 4v96h283v-96l-56 -4v20c0 10 -1 16 -15 16h-30v-217l40 -3v-52h-161v51l27 1c9 2 14 4 14 14zM476 665l76 -200h1l76 200h116v-56l-16 -1c-10 -2 -16 -4 -16 -18l13 -206l32 -2v-53h-133v51l18 2c9 0 14 3 14 13l-9 162
h-2l-74 -195h-52l-78 196h-1l-10 -174l33 -2v-53h-127v51l18 2c8 0 13 5 13 14l10 209l-31 2v58h129z" />
    <glyph glyph-name="ordfeminine" unicode="&#xaa;" horiz-adv-x="414" 
d="M280 264v38h-4c-21 -26 -49 -46 -93 -46c-98 0 -135 78 -135 163c0 116 65 191 182 191c26 0 79 -6 128 -24v-244c0 -15 5 -19 21 -20l17 -1v-57h-116zM266 369v164c-11 4 -28 8 -46 8c-57 0 -80 -51 -80 -112c0 -63 18 -105 66 -105c37 0 60 26 60 45z" />
    <glyph glyph-name="ordmasculine" unicode="&#xba;" horiz-adv-x="406" 
d="M202 331c46 0 67 33 67 101c0 67 -16 105 -68 105c-47 0 -65 -42 -65 -95c0 -62 13 -111 66 -111zM42 430c0 141 93 181 164 181c70 0 157 -34 157 -168c0 -122 -68 -187 -165 -187c-99 0 -156 66 -156 174z" />
    <glyph glyph-name="guillemotleft" unicode="&#xab;" horiz-adv-x="530" 
d="M293 406l-120 -143l113 -160l-47 -42l-174 161c-13 12 -18 28 -18 42c0 19 9 35 29 51l170 136zM497 406l-120 -143l113 -160l-47 -42l-174 161c-13 12 -18 28 -18 42c0 19 9 35 29 51l170 136z" />
    <glyph glyph-name="guillemotright" unicode="&#xbb;" horiz-adv-x="530" 
d="M154 263l-120 145l47 45l170 -136c20 -16 29 -32 29 -51c0 -14 -7 -33 -20 -45l-172 -158l-47 42zM358 263l-120 145l47 45l170 -136c20 -16 29 -32 29 -51c0 -14 -7 -33 -20 -45l-172 -158l-47 42z" />
    <glyph glyph-name="guilsinglleft" unicode="&#x2039;" horiz-adv-x="326" 
d="M293 406l-120 -143l113 -160l-47 -42l-174 161c-13 12 -18 28 -18 42c0 19 9 35 29 51l170 136z" />
    <glyph glyph-name="guilsinglright" unicode="&#x203a;" horiz-adv-x="326" 
d="M154 263l-120 145l47 45l170 -136c20 -16 29 -32 29 -51c0 -14 -7 -33 -20 -45l-172 -158l-47 42z" />
    <glyph glyph-name="quoteleft" unicode="&#x2018;" horiz-adv-x="220" 
d="M200 711l-58 -236c-37 4 -71 12 -92 23c-15 8 -19 21 -19 32c0 14 4 27 11 39l95 165z" />
    <glyph glyph-name="quoteright" unicode="&#x2019;" horiz-adv-x="212" 
d="M31 498l58 236c37 -4 71 -12 92 -23c15 -8 19 -21 19 -32c0 -14 -4 -27 -11 -39l-95 -165z" />
    <glyph glyph-name="quotesinglbase" unicode="&#x201a;" horiz-adv-x="227" 
d="M192 74l-102 -221l-63 19l30 190c5 30 21 50 49 50s52 -17 86 -38z" />
    <glyph glyph-name="quotedblleft" unicode="&#x201c;" horiz-adv-x="386" 
d="M200 711l-58 -236c-37 4 -71 12 -92 23c-15 8 -19 21 -19 32c0 14 4 27 11 39l95 165zM366 711l-58 -236c-37 4 -71 12 -92 23c-15 8 -19 21 -19 32c0 14 4 27 11 39l95 165z" />
    <glyph glyph-name="quotedblright" unicode="&#x201d;" horiz-adv-x="378" 
d="M31 498l58 236c37 -4 71 -12 92 -23c15 -8 19 -21 19 -32c0 -14 -4 -27 -11 -39l-95 -165zM197 498l58 236c37 -4 71 -12 92 -23c15 -8 19 -21 19 -32c0 -14 -4 -27 -11 -39l-95 -165z" />
    <glyph glyph-name="quotedblbase" unicode="&#x201e;" horiz-adv-x="393" 
d="M192 74l-102 -221l-63 19l30 190c5 30 21 50 49 50s52 -17 86 -38zM358 74l-102 -221l-63 19l30 190c5 30 21 50 49 50s52 -17 86 -38z" />
    <glyph glyph-name="dagger" unicode="&#x2020;" horiz-adv-x="401" 
d="M48 472l-8 35c-10 33 14 53 44 48l88 -16l-23 126l33 8c35 9 59 -14 54 -42l-16 -94l130 24l8 -32c10 -33 -14 -57 -44 -51l-94 19l20 -211c3 -30 -19 -51 -54 -43l-43 10l27 244z" />
    <glyph glyph-name="daggerdbl" unicode="&#x2021;" horiz-adv-x="439" 
d="M71 482l-8 35c-10 33 14 53 44 48l88 -16l-23 116l33 8c35 9 59 -14 54 -42l-16 -84l130 24l8 -32c10 -33 -14 -57 -44 -51l-89 18v-95l120 25l8 -35c10 -33 -14 -53 -44 -48l-88 16l23 -116l-33 -8c-35 -9 -59 14 -54 42l16 84l-130 -24l-8 32c-10 33 14 57 44 51
l89 -18v94z" />
    <glyph glyph-name="bullet" unicode="&#x2022;" horiz-adv-x="500" 
d="M134 310c0 74 49 123 116 123s116 -49 116 -123c0 -75 -49 -124 -116 -124s-116 48 -116 124z" />
    <glyph glyph-name="ellipsis" unicode="&#x2026;" horiz-adv-x="727" 
d="M36 56c0 41 27 72 71 72c48 0 75 -29 75 -71c0 -40 -26 -72 -71 -72c-50 0 -75 29 -75 71zM294 56c0 41 27 72 71 72c48 0 75 -29 75 -71c0 -40 -26 -72 -71 -72c-50 0 -75 29 -75 71zM544 56c0 41 27 72 71 72c48 0 75 -29 75 -71c0 -40 -26 -72 -71 -72
c-50 0 -75 29 -75 71z" />
    <glyph glyph-name="paragraph" unicode="&#xb6;" horiz-adv-x="549" 
d="M457 549v-468c0 -168 -48 -246 -245 -286l-25 98c119 29 155 75 155 169v517h-72v-364c-118 3 -219 69 -219 215c0 172 106 235 241 235h227v-81l-33 -3c-17 -2 -29 -8 -29 -32z" />
    <glyph glyph-name="periodcentered" unicode="&#xb7;" horiz-adv-x="309" 
d="M85 307c0 39 26 68 68 68c45 0 71 -27 71 -67c0 -39 -25 -69 -68 -69c-47 0 -71 28 -71 68z" />
    <glyph glyph-name="uni00AD" unicode="&#xad;" horiz-adv-x="322" 
d="M42 244v93h237v-93h-237z" />
    <glyph glyph-name="endash" unicode="&#x2013;" horiz-adv-x="500" 
d="M0 244v83h500v-83h-500z" />
    <glyph glyph-name="emdash" unicode="&#x2014;" horiz-adv-x="1000" 
d="M0 244v83h1000v-83h-1000z" />
    <glyph glyph-name="Agrave" unicode="&#xc0;" horiz-adv-x="662" 
d="M68 112l161 466l-63 6v81h229l204 -577h1l57 -3v-85h-258v81l38 3c21 2 31 8 24 30l-21 62h-234l-30 -88l60 -3v-85h-231v81l33 3c17 2 23 9 30 28zM323 553l-93 -285h186l-90 285h-3zM237 907l162 -157l-30 -41l-155 87c-36 20 -50 50 -17 78z" />
    <glyph glyph-name="Aacute" unicode="&#xc1;" horiz-adv-x="662" 
d="M68 112l161 466l-63 6v81h229l204 -577h1l57 -3v-85h-258v81l38 3c21 2 31 8 24 30l-21 62h-234l-30 -88l60 -3v-85h-231v81l33 3c17 2 23 9 30 28zM323 553l-93 -285h186l-90 285h-3zM221 750l162 157l40 -33c32 -27 19 -58 -17 -78l-155 -87z" />
    <glyph glyph-name="Acircumflex" unicode="&#xc2;" horiz-adv-x="662" 
d="M68 112l161 466l-63 6v81h229l204 -577h1l57 -3v-85h-258v81l38 3c21 2 31 8 24 30l-21 62h-234l-30 -88l60 -3v-85h-231v81l33 3c17 2 23 9 30 28zM323 553l-93 -285h186l-90 285h-3zM181 708l-41 34l118 128c28 30 57 28 82 2l120 -129l-41 -35l-120 86z" />
    <glyph glyph-name="Atilde" unicode="&#xc3;" horiz-adv-x="662" 
d="M68 112l161 466l-63 6v81h229l204 -577h1l57 -3v-85h-258v81l38 3c21 2 31 8 24 30l-21 62h-234l-30 -88l60 -3v-85h-231v81l33 3c17 2 23 9 30 28zM323 553l-93 -285h186l-90 285h-3zM184 728l-48 35c25 55 63 79 102 79c46 0 96 -28 134 -28c15 0 32 12 44 32l54 -29
c-23 -60 -55 -87 -103 -87c-41 0 -92 27 -125 27c-27 0 -37 -5 -58 -29z" />
    <glyph glyph-name="Adieresis" unicode="&#xc4;" horiz-adv-x="662" 
d="M68 112l161 466l-63 6v81h229l204 -577h1l57 -3v-85h-258v81l38 3c21 2 31 8 24 30l-21 62h-234l-30 -88l60 -3v-85h-231v81l33 3c17 2 23 9 30 28zM323 553l-93 -285h186l-90 285h-3zM334 787c0 37 28 67 69 67s69 -30 69 -67c0 -38 -29 -66 -69 -66
c-42 0 -69 28 -69 66zM134 787c0 37 28 67 69 67s69 -30 69 -67c0 -38 -29 -66 -69 -66c-42 0 -69 28 -69 66z" />
    <glyph glyph-name="Aring" unicode="&#xc5;" horiz-adv-x="662" 
d="M68 112l161 466l-63 6v81h229l204 -577h1l57 -3v-85h-258v81l38 3c21 2 31 8 24 30l-21 62h-234l-30 -88l60 -3v-85h-231v81l33 3c17 2 23 9 30 28zM323 553l-93 -285h186l-90 285h-3zM210 793c0 54 39 93 95 93c59 0 93 -40 93 -88c0 -57 -37 -98 -96 -98s-92 41 -92 93
zM269 793c0 -24 12 -42 36 -42s36 19 36 42c0 25 -11 41 -36 41c-26 0 -36 -16 -36 -41z" />
    <glyph glyph-name="AE" unicode="&#xc6;" horiz-adv-x="854" 
d="M63 112l161 466l-63 6v81h641v-166l-102 -7v40c0 19 -2 31 -29 31h-225l59 -171h249v-102h-231l66 -187h95c26 0 28 12 28 32v50l102 -7v-178h-420v81l38 3c21 2 31 8 24 30l-21 62h-234l-30 -88l60 -3v-85h-231v81l33 3c17 2 23 9 30 28zM318 553l-93 -285h186l-90 285
h-3z" />
    <glyph glyph-name="Ccedilla" unicode="&#xc7;" horiz-adv-x="602" 
d="M419 570c-19 6 -45 8 -65 8c-126 0 -189 -90 -189 -241c0 -157 52 -254 191 -251c28 0 54 3 73 9c18 6 21 14 21 33v80l102 -7v-173c-55 -29 -133 -41 -197 -41l-13 -50c53 -4 93 -31 93 -82c0 -73 -67 -97 -122 -97c-33 0 -67 8 -90 18l16 52c15 -5 44 -13 67 -13
c35 0 48 17 48 37c0 31 -35 38 -88 38l32 101c-167 19 -258 132 -258 338c0 261 160 348 314 348c59 0 128 -13 188 -41v-170l-102 -7v78c0 19 -3 27 -21 33z" />
    <glyph glyph-name="Egrave" unicode="&#xc8;" horiz-adv-x="549" 
d="M509 0h-475v81l33 3c17 2 29 8 29 28v465l-57 3v85h458v-166l-102 -7v40c0 19 -2 31 -29 31h-148v-171h231v-102h-231v-187h161c26 0 28 12 28 32v50l102 -7v-178zM214 907l162 -157l-30 -41l-155 87c-36 20 -50 50 -17 78z" />
    <glyph glyph-name="Eacute" unicode="&#xc9;" horiz-adv-x="549" 
d="M509 0h-475v81l33 3c17 2 29 8 29 28v465l-57 3v85h458v-166l-102 -7v40c0 19 -2 31 -29 31h-148v-171h231v-102h-231v-187h161c26 0 28 12 28 32v50l102 -7v-178zM184 750l162 157l40 -33c32 -27 19 -58 -17 -78l-155 -87z" />
    <glyph glyph-name="Ecircumflex" unicode="&#xca;" horiz-adv-x="549" 
d="M509 0h-475v81l33 3c17 2 29 8 29 28v465l-57 3v85h458v-166l-102 -7v40c0 19 -2 31 -29 31h-148v-171h231v-102h-231v-187h161c26 0 28 12 28 32v50l102 -7v-178zM155 708l-41 34l118 128c28 30 57 28 82 2l120 -129l-41 -35l-120 86z" />
    <glyph glyph-name="Edieresis" unicode="&#xcb;" horiz-adv-x="549" 
d="M509 0h-475v81l33 3c17 2 29 8 29 28v465l-57 3v85h458v-166l-102 -7v40c0 19 -2 31 -29 31h-148v-171h231v-102h-231v-187h161c26 0 28 12 28 32v50l102 -7v-178zM307 787c0 37 28 67 69 67s69 -30 69 -67c0 -38 -29 -66 -69 -66c-42 0 -69 28 -69 66zM107 787
c0 37 28 67 69 67s69 -30 69 -67c0 -38 -29 -66 -69 -66c-42 0 -69 28 -69 66z" />
    <glyph glyph-name="Igrave" unicode="&#xcc;" horiz-adv-x="307" 
d="M94 117v460l-57 3v85h242v-81l-33 -3c-17 -2 -29 -8 -29 -32v-461l57 -3v-85h-242v81l33 3c19 2 29 8 29 33zM86 907l162 -157l-30 -41l-155 87c-36 20 -50 50 -17 78z" />
    <glyph glyph-name="Iacute" unicode="&#xcd;" horiz-adv-x="307" 
d="M94 117v460l-57 3v85h242v-81l-33 -3c-17 -2 -29 -8 -29 -32v-461l57 -3v-85h-242v81l33 3c19 2 29 8 29 33zM64 750l162 157l40 -33c32 -27 19 -58 -17 -78l-155 -87z" />
    <glyph glyph-name="Icircumflex" unicode="&#xce;" horiz-adv-x="307" 
d="M94 117v460l-57 3v85h242v-81l-33 -3c-17 -2 -29 -8 -29 -32v-461l57 -3v-85h-242v81l33 3c19 2 29 8 29 33zM38 708l-41 34l118 128c28 30 57 28 82 2l120 -129l-41 -35l-120 86z" />
    <glyph glyph-name="Idieresis" unicode="&#xcf;" horiz-adv-x="307" 
d="M94 117v460l-57 3v85h242v-81l-33 -3c-17 -2 -29 -8 -29 -32v-461l57 -3v-85h-242v81l33 3c19 2 29 8 29 33zM190 787c0 37 28 67 69 67s69 -30 69 -67c0 -38 -29 -66 -69 -66c-42 0 -69 28 -69 66zM-10 787c0 37 28 67 69 67s69 -30 69 -67c0 -38 -29 -66 -69 -66
c-42 0 -69 28 -69 66z" />
    <glyph glyph-name="Eth" unicode="&#xd0;" horiz-adv-x="679" 
d="M48 0v81l33 3c17 2 29 8 29 28v178h-74v90h74v197l-57 3v85h274c191 0 312 -101 312 -309c0 -262 -146 -356 -307 -356h-284zM232 568v-188h169v-90h-169v-194h102c112 0 182 82 182 242c0 180 -87 230 -195 230h-89z" />
    <glyph glyph-name="Ntilde" unicode="&#xd1;" horiz-adv-x="705" 
d="M32 0v81l36 3c17 1 26 8 26 28v465l-57 3v85h180l283 -459h2v371l-66 3v85h244v-81l-36 -3c-15 -1 -24 -10 -24 -31v-550h-117l-289 466h-2v-378l65 -3v-85h-245zM222 728l-48 35c25 55 63 79 102 79c46 0 96 -28 134 -28c15 0 32 12 44 32l54 -29
c-23 -60 -55 -87 -103 -87c-41 0 -92 27 -125 27c-27 0 -37 -5 -58 -29z" />
    <glyph glyph-name="Ograve" unicode="&#xd2;" horiz-adv-x="664" 
d="M624 331c0 -229 -119 -344 -294 -344c-178 0 -290 116 -290 344c0 256 161 346 301 346c149 0 283 -92 283 -346zM165 336c0 -114 28 -248 172 -248c127 0 163 120 163 240c0 102 -27 246 -165 246c-128 0 -170 -119 -170 -238zM282 907l162 -157l-30 -41l-155 87
c-36 20 -50 50 -17 78z" />
    <glyph glyph-name="Oacute" unicode="&#xd3;" horiz-adv-x="664" 
d="M624 331c0 -229 -119 -344 -294 -344c-178 0 -290 116 -290 344c0 256 161 346 301 346c149 0 283 -92 283 -346zM165 336c0 -114 28 -248 172 -248c127 0 163 120 163 240c0 102 -27 246 -165 246c-128 0 -170 -119 -170 -238zM237 750l162 157l40 -33
c32 -27 19 -58 -17 -78l-155 -87z" />
    <glyph glyph-name="Ocircumflex" unicode="&#xd4;" horiz-adv-x="664" 
d="M624 331c0 -229 -119 -344 -294 -344c-178 0 -290 116 -290 344c0 256 161 346 301 346c149 0 283 -92 283 -346zM165 336c0 -114 28 -248 172 -248c127 0 163 120 163 240c0 102 -27 246 -165 246c-128 0 -170 -119 -170 -238zM220 708l-41 34l118 128c28 30 57 28 82 2
l120 -129l-41 -35l-120 86z" />
    <glyph glyph-name="Otilde" unicode="&#xd5;" horiz-adv-x="664" 
d="M624 331c0 -229 -119 -344 -294 -344c-178 0 -290 116 -290 344c0 256 161 346 301 346c149 0 283 -92 283 -346zM165 336c0 -114 28 -248 172 -248c127 0 163 120 163 240c0 102 -27 246 -165 246c-128 0 -170 -119 -170 -238zM220 728l-48 35c25 55 63 79 102 79
c46 0 96 -28 134 -28c15 0 32 12 44 32l54 -29c-23 -60 -55 -87 -103 -87c-41 0 -92 27 -125 27c-27 0 -37 -5 -58 -29z" />
    <glyph glyph-name="Odieresis" unicode="&#xd6;" horiz-adv-x="664" 
d="M624 331c0 -229 -119 -344 -294 -344c-178 0 -290 116 -290 344c0 256 161 346 301 346c149 0 283 -92 283 -346zM165 336c0 -114 28 -248 172 -248c127 0 163 120 163 240c0 102 -27 246 -165 246c-128 0 -170 -119 -170 -238zM369 787c0 37 28 67 69 67s69 -30 69 -67
c0 -38 -29 -66 -69 -66c-42 0 -69 28 -69 66zM169 787c0 37 28 67 69 67s69 -30 69 -67c0 -38 -29 -66 -69 -66c-42 0 -69 28 -69 66z" />
    <glyph glyph-name="Oslash" unicode="&#xd8;" horiz-adv-x="664" 
d="M624 331c0 -229 -119 -344 -294 -344c-39 0 -75 6 -107 16l-50 -103l-87 42l53 110c-63 56 -99 150 -99 279c0 256 161 346 301 346c36 0 71 -6 103 -17l44 91l89 -41l-49 -102c58 -54 96 -143 96 -277zM165 336c0 -59 7 -123 34 -172l192 400c-17 6 -35 10 -56 10
c-128 0 -170 -119 -170 -238zM500 328c0 53 -8 117 -34 167l-191 -397c18 -7 38 -10 62 -10c127 0 163 120 163 240z" />
    <glyph glyph-name="Ugrave" unicode="&#xd9;" horiz-adv-x="659" 
d="M201 548v-332c0 -98 51 -127 131 -127s130 40 130 122v366l-58 3v85h237v-81l-33 -3c-18 -2 -29 -10 -29 -30v-357c0 -131 -99 -207 -251 -207c-164 0 -248 66 -248 223v367l-58 3v85h242v-81l-33 -3c-19 -2 -30 -8 -30 -33zM257 907l162 -157l-30 -41l-155 87
c-36 20 -50 50 -17 78z" />
    <glyph glyph-name="Uacute" unicode="&#xda;" horiz-adv-x="659" 
d="M201 548v-332c0 -98 51 -127 131 -127s130 40 130 122v366l-58 3v85h237v-81l-33 -3c-18 -2 -29 -10 -29 -30v-357c0 -131 -99 -207 -251 -207c-164 0 -248 66 -248 223v367l-58 3v85h242v-81l-33 -3c-19 -2 -30 -8 -30 -33zM243 750l162 157l40 -33
c32 -27 19 -58 -17 -78l-155 -87z" />
    <glyph glyph-name="Ucircumflex" unicode="&#xdb;" horiz-adv-x="659" 
d="M201 548v-332c0 -98 51 -127 131 -127s130 40 130 122v366l-58 3v85h237v-81l-33 -3c-18 -2 -29 -10 -29 -30v-357c0 -131 -99 -207 -251 -207c-164 0 -248 66 -248 223v367l-58 3v85h242v-81l-33 -3c-19 -2 -30 -8 -30 -33zM209 708l-41 34l118 128c28 30 57 28 82 2
l120 -129l-41 -35l-120 86z" />
    <glyph glyph-name="Udieresis" unicode="&#xdc;" horiz-adv-x="659" 
d="M201 548v-332c0 -98 51 -127 131 -127s130 40 130 122v366l-58 3v85h237v-81l-33 -3c-18 -2 -29 -10 -29 -30v-357c0 -131 -99 -207 -251 -207c-164 0 -248 66 -248 223v367l-58 3v85h242v-81l-33 -3c-19 -2 -30 -8 -30 -33zM369 787c0 37 28 67 69 67s69 -30 69 -67
c0 -38 -29 -66 -69 -66c-42 0 -69 28 -69 66zM169 787c0 37 28 67 69 67s69 -30 69 -67c0 -38 -29 -66 -69 -66c-42 0 -69 28 -69 66z" />
    <glyph glyph-name="Yacute" unicode="&#xdd;" horiz-adv-x="570" 
d="M222 112v142l-170 323l-47 3v85h244v-81l-30 -3c-22 -2 -28 -18 -17 -39l85 -174h4l109 208l-50 4v85h215v-81l-30 -3c-16 -2 -24 -12 -34 -30l-157 -297v-166l78 -3v-85h-282v81l53 3c19 1 29 8 29 28zM191 750l162 157l40 -33c32 -27 19 -58 -17 -78l-155 -87z" />
    <glyph glyph-name="Thorn" unicode="&#xde;" horiz-adv-x="590" 
d="M216 227h72c87 0 146 27 146 109c0 94 -59 109 -157 109h-61v-218zM216 559v-17h107c147 0 237 -67 237 -194c0 -145 -108 -218 -259 -218h-85v-46l96 -3v-81h-280v78l33 3c17 2 29 8 29 28v470l-62 4v82h277v-75l-64 -3c-16 -1 -29 -8 -29 -28z" />
    <glyph glyph-name="germandbls" unicode="&#xdf;" horiz-adv-x="625" 
d="M90 112v398c0 106 47 203 240 203c153 0 216 -66 216 -145c0 -103 -131 -137 -131 -198c0 -72 180 -81 180 -224c0 -106 -80 -159 -180 -159c-40 0 -103 5 -160 31v139l90 7v-48c0 -19 1 -28 19 -35c15 -6 30 -8 49 -8c36 1 64 23 64 66c0 95 -173 89 -173 211
c0 100 129 133 129 206c0 46 -43 67 -109 67c-76 0 -115 -36 -115 -107v-516h-181v76l33 3c19 2 29 8 29 33z" />
    <glyph glyph-name="agrave" unicode="&#xe0;" horiz-adv-x="567" 
d="M482 483v-372c0 -22 6 -28 25 -29l32 -2v-80h-159v58l-3 1c-31 -45 -82 -72 -137 -72c-141 0 -200 100 -200 243c0 176 84 288 264 288c33 0 106 -8 178 -35zM366 159v259c-15 7 -46 13 -77 13c-95 0 -127 -89 -127 -197c0 -83 20 -162 104 -162c62 0 100 44 100 87z
M253 786l116 -192l-39 -33l-128 124c-29 28 -37 60 4 79z" />
    <glyph glyph-name="aacute" unicode="&#xe1;" horiz-adv-x="567" 
d="M482 483v-372c0 -22 6 -28 25 -29l32 -2v-80h-159v58l-3 1c-31 -45 -82 -72 -137 -72c-141 0 -200 100 -200 243c0 176 84 288 264 288c33 0 106 -8 178 -35zM366 159v259c-15 7 -46 13 -77 13c-95 0 -127 -89 -127 -197c0 -83 20 -162 104 -162c62 0 100 44 100 87z
M214 594l116 192l47 -22c41 -19 33 -51 4 -79l-128 -124z" />
    <glyph glyph-name="acircumflex" unicode="&#xe2;" horiz-adv-x="567" 
d="M482 483v-372c0 -22 6 -28 25 -29l32 -2v-80h-159v58l-3 1c-31 -45 -82 -72 -137 -72c-141 0 -200 100 -200 243c0 176 84 288 264 288c33 0 106 -8 178 -35zM366 159v259c-15 7 -46 13 -77 13c-95 0 -127 -89 -127 -197c0 -83 20 -162 104 -162c62 0 100 44 100 87z
M174 562l-41 32l115 151c28 37 63 33 89 -2l113 -148l-41 -34l-118 104z" />
    <glyph glyph-name="atilde" unicode="&#xe3;" horiz-adv-x="567" 
d="M482 483v-372c0 -22 6 -28 25 -29l32 -2v-80h-159v58l-3 1c-31 -45 -82 -72 -137 -72c-141 0 -200 100 -200 243c0 176 84 288 264 288c33 0 106 -8 178 -35zM366 159v259c-15 7 -46 13 -77 13c-95 0 -127 -89 -127 -197c0 -83 20 -162 104 -162c62 0 100 44 100 87z
M175 596l-48 35c25 55 63 79 102 79c46 0 96 -28 134 -28c15 0 32 12 44 32l54 -29c-23 -60 -55 -87 -103 -87c-41 0 -92 27 -125 27c-27 0 -37 -5 -58 -29z" />
    <glyph glyph-name="adieresis" unicode="&#xe4;" horiz-adv-x="567" 
d="M482 483v-372c0 -22 6 -28 25 -29l32 -2v-80h-159v58l-3 1c-31 -45 -82 -72 -137 -72c-141 0 -200 100 -200 243c0 176 84 288 264 288c33 0 106 -8 178 -35zM366 159v259c-15 7 -46 13 -77 13c-95 0 -127 -89 -127 -197c0 -83 20 -162 104 -162c62 0 100 44 100 87z
M321 647c0 37 28 67 69 67s69 -30 69 -67c0 -38 -29 -66 -69 -66c-42 0 -69 28 -69 66zM121 647c0 37 28 67 69 67s69 -30 69 -67c0 -38 -29 -66 -69 -66c-42 0 -69 28 -69 66z" />
    <glyph glyph-name="aring" unicode="&#xe5;" horiz-adv-x="567" 
d="M482 483v-372c0 -22 6 -28 25 -29l32 -2v-80h-159v58l-3 1c-31 -45 -82 -72 -137 -72c-141 0 -200 100 -200 243c0 176 84 288 264 288c33 0 106 -8 178 -35zM366 159v259c-15 7 -46 13 -77 13c-95 0 -127 -89 -127 -197c0 -83 20 -162 104 -162c62 0 100 44 100 87z
M192 657c0 54 39 93 95 93c59 0 93 -40 93 -88c0 -57 -37 -98 -96 -98s-92 41 -92 93zM251 657c0 -24 12 -42 36 -42s36 19 36 42c0 25 -11 41 -36 41c-26 0 -36 -16 -36 -41z" />
    <glyph glyph-name="ae" unicode="&#xe6;" horiz-adv-x="765" 
d="M566 518c98 0 162 -50 162 -139c0 -154 -165 -180 -285 -181c4 -71 43 -119 124 -119c56 0 100 28 125 45l38 -81c-20 -17 -84 -56 -180 -56c-70 0 -124 20 -158 54c-34 -28 -85 -54 -148 -54c-154 0 -204 111 -204 246c0 175 90 285 259 285c41 0 98 -12 143 -34
c34 22 75 34 124 34zM287 431c-89 0 -125 -88 -125 -187c0 -109 26 -172 107 -172c34 0 56 13 75 32c-17 36 -26 84 -26 137c0 64 21 131 51 175c-22 9 -51 15 -82 15zM618 375c0 37 -23 58 -59 58c-80 0 -117 -78 -120 -152c54 -1 179 17 179 94z" />
    <glyph glyph-name="ccedilla" unicode="&#xe7;" horiz-adv-x="471" 
d="M283 78c39 0 74 13 115 43l43 -77c-36 -30 -91 -54 -157 -57l-12 -50c53 -4 93 -31 93 -82c0 -73 -67 -97 -122 -97c-33 0 -67 8 -90 18l16 52c15 -5 44 -13 67 -13c35 0 48 17 48 37c0 31 -35 38 -88 38l31 99c-123 15 -194 105 -194 256c0 203 125 273 238 273
c60 0 108 -15 156 -41v-130l-92 -7v48c0 19 -3 28 -21 34c-12 4 -24 6 -39 6c-80 0 -121 -60 -121 -171c0 -109 40 -179 129 -179z" />
    <glyph glyph-name="egrave" unicode="&#xe8;" horiz-adv-x="484" 
d="M284 518c98 0 163 -50 163 -139c0 -154 -167 -180 -285 -181c4 -65 38 -118 123 -118c59 0 102 27 126 44l38 -81c-16 -14 -82 -56 -176 -56c-170 0 -236 104 -236 253c0 148 83 278 247 278zM337 377c0 37 -24 56 -60 56c-80 0 -116 -77 -119 -151c74 1 179 18 179 95z
M220 786l116 -192l-39 -33l-128 124c-29 28 -37 60 4 79z" />
    <glyph glyph-name="eacute" unicode="&#xe9;" horiz-adv-x="484" 
d="M284 518c98 0 163 -50 163 -139c0 -154 -167 -180 -285 -181c4 -65 38 -118 123 -118c59 0 102 27 126 44l38 -81c-16 -14 -82 -56 -176 -56c-170 0 -236 104 -236 253c0 148 83 278 247 278zM337 377c0 37 -24 56 -60 56c-80 0 -116 -77 -119 -151c74 1 179 18 179 95z
M173 594l116 192l47 -22c41 -19 33 -51 4 -79l-128 -124z" />
    <glyph glyph-name="ecircumflex" unicode="&#xea;" horiz-adv-x="484" 
d="M284 518c98 0 163 -50 163 -139c0 -154 -167 -180 -285 -181c4 -65 38 -118 123 -118c59 0 102 27 126 44l38 -81c-16 -14 -82 -56 -176 -56c-170 0 -236 104 -236 253c0 148 83 278 247 278zM337 377c0 37 -24 56 -60 56c-80 0 -116 -77 -119 -151c74 1 179 18 179 95z
M145 562l-41 32l115 151c28 37 63 33 89 -2l113 -148l-41 -34l-118 104z" />
    <glyph glyph-name="edieresis" unicode="&#xeb;" horiz-adv-x="484" 
d="M284 518c-164 0 -247 -130 -247 -278c0 -149 66 -253 236 -253c94 0 160 42 176 56l-38 81c-24 -17 -67 -44 -126 -44c-85 0 -119 53 -123 118c118 1 285 27 285 181c0 89 -65 139 -163 139zM337 377c0 -77 -105 -94 -179 -95c3 74 39 151 119 151c36 0 60 -19 60 -56z
M291 647c0 37 28 67 69 67s69 -30 69 -67c0 -38 -29 -66 -69 -66c-42 0 -69 28 -69 66zM91 647c0 37 28 67 69 67s69 -30 69 -67c0 -38 -29 -66 -69 -66c-42 0 -69 28 -69 66z" />
    <glyph glyph-name="igrave" unicode="&#xec;" horiz-adv-x="296" 
d="M214 503v-420l57 -3v-80h-238v76l33 3c18 2 29 8 29 32v278c0 22 -6 29 -25 29l-35 2v83h179zM96 786l116 -192l-39 -33l-128 124c-29 28 -37 60 4 79z" />
    <glyph glyph-name="iacute" unicode="&#xed;" horiz-adv-x="296" 
d="M214 503v-420l57 -3v-80h-238v76l33 3c18 2 29 8 29 32v278c0 22 -6 29 -25 29l-35 2v83h179zM82 594l116 192l47 -22c41 -19 33 -51 4 -79l-128 -124z" />
    <glyph glyph-name="icircumflex" unicode="&#xee;" horiz-adv-x="296" 
d="M214 503v-420l57 -3v-80h-238v76l33 3c18 2 29 8 29 32v278c0 22 -6 29 -25 29l-35 2v83h179zM8 562l-41 32l115 151c28 37 63 33 89 -2l113 -148l-41 -34l-118 104z" />
    <glyph glyph-name="idieresis" unicode="&#xef;" horiz-adv-x="296" 
d="M214 503v-420l57 -3v-80h-238v76l33 3c18 2 29 8 29 32v278c0 22 -6 29 -25 29l-35 2v83h179zM156 647c0 37 28 67 69 67s69 -30 69 -67c0 -38 -29 -66 -69 -66c-42 0 -69 28 -69 66zM-44 647c0 37 28 67 69 67s69 -30 69 -67c0 -38 -29 -66 -69 -66c-42 0 -69 28 -69 66
z" />
    <glyph glyph-name="eth" unicode="&#xf0;" horiz-adv-x="512" 
d="M202 477l-46 65l66 45c-28 17 -62 30 -100 37l24 93c70 -9 126 -32 171 -65l84 57l45 -65l-67 -47c77 -96 99 -213 99 -321c0 -162 -64 -290 -235 -290c-152 0 -213 96 -213 223c0 135 75 236 203 236c34 0 76 -7 114 -32c-12 45 -28 81 -62 121zM153 213
c0 -84 33 -132 95 -132c75 0 107 78 107 180c0 13 0 41 -1 55c-23 19 -67 37 -104 37c-65 0 -97 -51 -97 -140z" />
    <glyph glyph-name="ntilde" unicode="&#xf1;" horiz-adv-x="600" 
d="M27 423v80h169v-65c35 50 96 80 162 80c100 0 159 -56 159 -174v-261l57 -3v-80h-238v76l33 3c19 2 29 8 29 33v206c0 66 -14 108 -82 108c-66 0 -103 -49 -103 -101v-242l57 -3v-80h-238v76l33 3c19 2 29 8 29 33v277c0 22 -7 30 -25 31zM177 596l-48 35
c25 55 63 79 102 79c46 0 96 -28 134 -28c15 0 32 12 44 32l54 -29c-23 -60 -55 -87 -103 -87c-41 0 -92 27 -125 27c-27 0 -37 -5 -58 -29z" />
    <glyph glyph-name="ograve" unicode="&#xf2;" horiz-adv-x="528" 
d="M263 73c78 0 109 72 109 176c0 112 -27 181 -107 181c-79 0 -111 -68 -111 -164c0 -93 13 -193 109 -193zM33 252c0 208 135 266 238 266c74 0 223 -23 223 -253c0 -192 -107 -280 -239 -280c-134 0 -222 86 -222 267zM228 786l116 -192l-39 -33l-128 124
c-29 28 -37 60 4 79z" />
    <glyph glyph-name="oacute" unicode="&#xf3;" horiz-adv-x="528" 
d="M263 73c78 0 109 72 109 176c0 112 -27 181 -107 181c-79 0 -111 -68 -111 -164c0 -93 13 -193 109 -193zM33 252c0 208 135 266 238 266c74 0 223 -23 223 -253c0 -192 -107 -280 -239 -280c-134 0 -222 86 -222 267zM186 594l116 192l47 -22c41 -19 33 -51 4 -79
l-128 -124z" />
    <glyph glyph-name="ocircumflex" unicode="&#xf4;" horiz-adv-x="528" 
d="M263 73c78 0 109 72 109 176c0 112 -27 181 -107 181c-79 0 -111 -68 -111 -164c0 -93 13 -193 109 -193zM33 252c0 208 135 266 238 266c74 0 223 -23 223 -253c0 -192 -107 -280 -239 -280c-134 0 -222 86 -222 267zM144 562l-41 32l115 151c28 37 63 33 89 -2
l113 -148l-41 -34l-118 104z" />
    <glyph glyph-name="otilde" unicode="&#xf5;" horiz-adv-x="528" 
d="M263 73c78 0 109 72 109 176c0 112 -27 181 -107 181c-79 0 -111 -68 -111 -164c0 -93 13 -193 109 -193zM33 252c0 208 135 266 238 266c74 0 223 -23 223 -253c0 -192 -107 -280 -239 -280c-134 0 -222 86 -222 267zM147 596l-48 35c25 55 63 79 102 79
c46 0 96 -28 134 -28c15 0 32 12 44 32l54 -29c-23 -60 -55 -87 -103 -87c-41 0 -92 27 -125 27c-27 0 -37 -5 -58 -29z" />
    <glyph glyph-name="odieresis" unicode="&#xf6;" horiz-adv-x="528" 
d="M263 73c78 0 109 72 109 176c0 112 -27 181 -107 181c-79 0 -111 -68 -111 -164c0 -93 13 -193 109 -193zM33 252c0 208 135 266 238 266c74 0 223 -23 223 -253c0 -192 -107 -280 -239 -280c-134 0 -222 86 -222 267zM292 647c0 37 28 67 69 67s69 -30 69 -67
c0 -38 -29 -66 -69 -66c-42 0 -69 28 -69 66zM92 647c0 37 28 67 69 67s69 -30 69 -67c0 -38 -29 -66 -69 -66c-42 0 -69 28 -69 66z" />
    <glyph glyph-name="oslash" unicode="&#xf8;" horiz-adv-x="528" 
d="M137 -84l-72 36l42 86c-46 44 -72 115 -72 214c0 208 135 266 238 266c22 0 50 -2 79 -11l38 76l73 -35l-40 -80c41 -36 73 -98 73 -203c0 -192 -107 -280 -239 -280c-29 0 -56 4 -80 12zM265 73c78 0 109 72 109 176c0 41 -4 76 -13 104l-139 -272c12 -5 26 -8 43 -8z
M267 430c-79 0 -111 -68 -111 -164c0 -40 2 -80 12 -114l138 271c-11 5 -25 7 -39 7z" />
    <glyph glyph-name="ugrave" unicode="&#xf9;" horiz-adv-x="591" 
d="M563 79v-79h-162v65c-35 -50 -96 -78 -162 -78c-100 0 -155 55 -155 173v231c0 21 -8 27 -25 28l-32 2v82h176v-317c0 -61 10 -107 74 -107c70 0 107 47 107 99v211c0 22 -6 29 -25 30l-32 2v82h176v-392c0 -22 6 -27 25 -29zM234 786l116 -192l-39 -33l-128 124
c-29 28 -37 60 4 79z" />
    <glyph glyph-name="uacute" unicode="&#xfa;" horiz-adv-x="591" 
d="M563 79v-79h-162v65c-35 -50 -96 -78 -162 -78c-100 0 -155 55 -155 173v231c0 21 -8 27 -25 28l-32 2v82h176v-317c0 -61 10 -107 74 -107c70 0 107 47 107 99v211c0 22 -6 29 -25 30l-32 2v82h176v-392c0 -22 6 -27 25 -29zM204 594l116 192l47 -22
c41 -19 33 -51 4 -79l-128 -124z" />
    <glyph glyph-name="ucircumflex" unicode="&#xfb;" horiz-adv-x="591" 
d="M563 79v-79h-162v65c-35 -50 -96 -78 -162 -78c-100 0 -155 55 -155 173v231c0 21 -8 27 -25 28l-32 2v82h176v-317c0 -61 10 -107 74 -107c70 0 107 47 107 99v211c0 22 -6 29 -25 30l-32 2v82h176v-392c0 -22 6 -27 25 -29zM157 562l-41 32l115 151c28 37 63 33 89 -2
l113 -148l-41 -34l-118 104z" />
    <glyph glyph-name="udieresis" unicode="&#xfc;" horiz-adv-x="591" 
d="M563 79v-79h-162v65c-35 -50 -96 -78 -162 -78c-100 0 -155 55 -155 173v231c0 21 -8 27 -25 28l-32 2v82h176v-317c0 -61 10 -107 74 -107c70 0 107 47 107 99v211c0 22 -6 29 -25 30l-32 2v82h176v-392c0 -22 6 -27 25 -29zM308 647c0 37 28 67 69 67s69 -30 69 -67
c0 -38 -29 -66 -69 -66c-42 0 -69 28 -69 66zM108 647c0 37 28 67 69 67s69 -30 69 -67c0 -38 -29 -66 -69 -66c-42 0 -69 28 -69 66z" />
    <glyph glyph-name="yacute" unicode="&#xfd;" horiz-adv-x="573" 
d="M401 19v76c-35 -50 -96 -78 -162 -78c-100 0 -155 55 -155 173v201c0 21 -8 27 -25 28l-32 2v82h176v-287c0 -61 10 -107 74 -107c70 0 107 47 107 99v181c0 22 -6 30 -25 30l-32 2v82h176v-484c0 -165 -83 -233 -232 -233c-63 0 -146 12 -188 33v139l95 8v-48
c0 -19 5 -29 23 -36c19 -7 41 -10 71 -10c92 0 129 56 129 147zM205 594l116 192l47 -22c41 -19 33 -51 4 -79l-128 -124z" />
    <glyph glyph-name="thorn" unicode="&#xfe;" horiz-adv-x="568" 
d="M406 260c0 78 -19 169 -112 169c-46 0 -90 -30 -90 -75v-249c26 -17 62 -25 88 -25c85 0 114 82 114 180zM529 276c0 -184 -81 -291 -218 -291c-39 0 -81 13 -107 29v-138l81 -4v-79h-258v76l33 3c19 2 29 8 29 33v699c0 17 -8 23 -25 24l-35 2v83h175v-237
c28 26 74 42 121 42c123 0 204 -89 204 -242z" />
    <glyph glyph-name="ydieresis" unicode="&#xff;" horiz-adv-x="573" 
d="M401 19v76c-35 -50 -96 -78 -162 -78c-100 0 -155 55 -155 173v201c0 21 -8 27 -25 28l-32 2v82h176v-287c0 -61 10 -107 74 -107c70 0 107 47 107 99v181c0 22 -6 30 -25 30l-32 2v82h176v-484c0 -165 -83 -233 -232 -233c-63 0 -146 12 -188 33v139l95 8v-48
c0 -19 5 -29 23 -36c19 -7 41 -10 71 -10c92 0 129 56 129 147zM301 647c0 37 28 67 69 67s69 -30 69 -67c0 -38 -29 -66 -69 -66c-42 0 -69 28 -69 66zM101 647c0 37 28 67 69 67s69 -30 69 -67c0 -38 -29 -66 -69 -66c-42 0 -69 28 -69 66z" />
    <glyph glyph-name="itilde" unicode="&#x129;" horiz-adv-x="296" 
d="M214 503v-420l57 -3v-80h-238v76l33 3c18 2 29 8 29 32v278c0 22 -6 29 -25 29l-35 2v83h179zM16 596l-48 35c25 55 63 79 102 79c46 0 96 -28 134 -28c15 0 32 12 44 32l54 -29c-23 -60 -55 -87 -103 -87c-41 0 -92 27 -125 27c-27 0 -37 -5 -58 -29z" />
    <glyph glyph-name="napostrophe" unicode="&#x149;" horiz-adv-x="600" 
d="M27 423v80h169v-65c35 50 96 80 162 80c100 0 159 -56 159 -174v-261l57 -3v-80h-238v76l33 3c19 2 29 8 29 33v206c0 66 -14 108 -82 108c-66 0 -103 -49 -103 -101v-242l57 -3v-80h-238v76l33 3c19 2 29 8 29 33v277c0 22 -7 30 -25 31zM-73 481l34 210l48 -2
c43 -2 47 -34 31 -68l-69 -155z" />
    <glyph glyph-name="Eng" unicode="&#x14a;" horiz-adv-x="705" 
d="M32 0v81l36 3c17 1 26 8 26 28v465l-57 3v85h180l280 -453h2v365l-66 3v85h247v-81l-36 -3c-15 -1 -24 -10 -24 -31v-572c0 -120 -29 -195 -158 -195c-63 0 -123 18 -169 45l44 87c36 -22 68 -32 97 -32c46 0 64 25 64 94v31l-282 454h-2v-374l65 -3v-85h-247z" />
    <glyph glyph-name="OE" unicode="&#x152;" horiz-adv-x="886" 
d="M834 665v-166l-102 -7v40c0 19 -2 31 -29 31h-148v-171h231v-102h-231v-187h161c26 0 28 12 28 32v50l102 -7v-178h-402c-33 -8 -72 -13 -112 -13c-183 0 -292 117 -292 345c0 256 160 345 305 345c31 0 68 -5 99 -12h390zM165 337c0 -117 34 -249 182 -249
c33 0 63 5 86 15v452c-23 10 -53 20 -88 20c-131 0 -180 -119 -180 -238z" />
    <glyph glyph-name="oe" unicode="&#x153;" horiz-adv-x="807" 
d="M607 518c98 0 163 -50 163 -139c0 -154 -168 -182 -285 -181c4 -66 39 -119 124 -119c58 0 101 28 125 45l38 -81c-16 -14 -82 -56 -176 -56c-88 0 -146 30 -178 85c-35 -61 -98 -86 -167 -86c-130 0 -218 84 -218 265c0 209 133 267 233 267c55 0 127 -15 164 -91
c39 62 100 91 177 91zM263 73c76 0 109 71 109 176c0 111 -27 181 -107 181c-78 0 -111 -68 -111 -165c0 -93 15 -192 109 -192zM660 374c0 37 -24 59 -60 59c-79 0 -116 -78 -119 -152c54 -1 179 16 179 93z" />
    <glyph glyph-name="Scaron" unicode="&#x160;" horiz-adv-x="522" 
d="M241 90c66 0 120 21 120 96c0 63 -57 81 -127 100c-99 27 -191 67 -191 195c0 122 94 196 232 196c66 0 128 -13 188 -41v-150l-102 -7v58c0 19 -3 27 -21 33c-19 6 -45 8 -65 8c-59 0 -105 -24 -105 -86s58 -79 133 -102c91 -29 187 -70 187 -199
c0 -132 -104 -204 -242 -204c-80 0 -142 13 -202 41v158l102 7v-61c0 -19 3 -27 21 -33c19 -6 45 -9 72 -9zM386 893l41 -34l-118 -128c-28 -30 -57 -28 -82 -2l-120 129l41 35l120 -86z" />
    <glyph glyph-name="scaron" unicode="&#x161;" horiz-adv-x="451" 
d="M352 771l41 -32l-115 -146c-28 -37 -63 -33 -89 2l-113 143l41 34l118 -104zM295 427c-19 7 -34 9 -58 9c-43 0 -75 -20 -75 -60c0 -46 48 -60 95 -73c78 -22 164 -47 164 -156c0 -104 -86 -160 -193 -160c-63 0 -142 10 -184 31v139l90 7v-48c0 -19 5 -27 23 -34
c19 -7 42 -10 66 -10c50 0 79 19 79 61c0 48 -44 57 -98 71c-74 19 -155 44 -155 155c0 104 88 159 193 159c68 0 127 -21 166 -40v-120l-90 -7v42c0 19 -5 27 -23 34z" />
    <glyph glyph-name="uring" unicode="&#x16f;" horiz-adv-x="591" 
d="M182 657c0 54 39 93 95 93c59 0 93 -40 93 -88c0 -57 -37 -98 -96 -98s-92 41 -92 93zM241 657c0 -24 12 -42 36 -42s36 19 36 42c0 25 -11 41 -36 41c-26 0 -36 -16 -36 -41zM563 79v-79h-162v65c-35 -50 -96 -78 -162 -78c-100 0 -155 55 -155 173v231
c0 21 -8 27 -25 28l-32 2v82h176v-317c0 -61 10 -107 74 -107c70 0 107 47 107 99v211c0 22 -6 29 -25 30l-32 2v82h176v-392c0 -22 6 -27 25 -29z" />
    <glyph glyph-name="Ydieresis" unicode="&#x178;" horiz-adv-x="570" 
d="M222 112v142l-170 323l-47 3v85h244v-81l-30 -3c-22 -2 -28 -18 -17 -39l85 -174h4l109 208l-50 4v85h215v-81l-30 -3c-16 -2 -24 -12 -34 -30l-157 -297v-166l78 -3v-85h-282v81l53 3c19 1 29 8 29 28zM328 787c0 37 28 67 69 67s69 -30 69 -67c0 -38 -29 -66 -69 -66
c-42 0 -69 28 -69 66zM128 787c0 37 28 67 69 67s69 -30 69 -67c0 -38 -29 -66 -69 -66c-42 0 -69 28 -69 66z" />
    <glyph glyph-name="Zcaron" unicode="&#x17d;" horiz-adv-x="533" 
d="M477 584l-305 -489h194c21 0 25 13 25 32v70l102 -7v-190h-460v83l302 487h-166c-21 0 -27 -14 -27 -31v-40l-102 7v159h437v-81zM384 893l41 -34l-118 -128c-28 -30 -57 -28 -82 -2l-120 129l41 35l120 -86z" />
    <glyph glyph-name="zcaron" unicode="&#x17e;" horiz-adv-x="483" 
d="M357 771l41 -32l-115 -146c-28 -37 -63 -33 -89 2l-113 143l41 34l118 -104zM448 0h-408v76l257 338h-126c-30 0 -32 -13 -32 -34v-35l-94 7v151h398v-68l-260 -345h142c24 0 29 14 29 34v42l94 -7v-159z" />
    <glyph glyph-name="ffi" unicode="&#xfb03;" horiz-adv-x="869" 
d="M382 112v307h-167v-335l64 -4v-80h-245v76l33 3c19 2 29 8 29 33v307h-86v84h86v38c0 80 18 182 168 182c34 0 71 -6 101 -17l-24 -83c-20 6 -40 10 -57 10c-50 0 -69 -28 -69 -83v-47h167v38c0 80 29 182 189 182c68 0 141 -25 175 -44l-31 -81c-29 15 -77 35 -129 35
c-60 0 -85 -28 -85 -83v-47h286v-420l57 -3v-80h-238v76l33 3c18 2 29 8 29 32v278c0 19 -5 30 -26 30h-141v-335l64 -4v-80h-245v76l33 3c19 2 29 8 29 33z" />
    <glyph glyph-name="circumflex" unicode="&#x2c6;" horiz-adv-x="500" 
d="M131 562l-41 32l115 151c28 37 63 33 89 -2l113 -148l-41 -34l-118 104z" />
    <glyph glyph-name="dieresis" unicode="&#xa8;" horiz-adv-x="500" 
d="M283 647c0 37 28 67 69 67s69 -30 69 -67c0 -38 -29 -66 -69 -66c-42 0 -69 28 -69 66zM83 647c0 37 28 67 69 67s69 -30 69 -67c0 -38 -29 -66 -69 -66c-42 0 -69 28 -69 66z" />
    <glyph glyph-name="macron" unicode="&#xaf;" horiz-adv-x="500" 
d="M104 610v84h287v-84h-287z" />
    <glyph glyph-name="degree" unicode="&#xb0;" horiz-adv-x="298" 
d="M35 596c0 67 46 118 114 118c72 0 114 -52 114 -112c0 -70 -46 -121 -117 -121s-111 51 -111 115zM97 596c0 -34 18 -59 52 -59s51 26 51 59c0 36 -16 61 -51 61c-36 0 -52 -25 -52 -61z" />
    <glyph glyph-name="acute" unicode="&#xb4;" horiz-adv-x="500" 
d="M148 594l116 192l47 -22c41 -19 33 -51 4 -79l-128 -124z" />
    <glyph glyph-name="grave" unicode="`" horiz-adv-x="500" 
d="M234 786l116 -192l-39 -33l-128 124c-29 28 -37 60 4 79z" />
    <glyph glyph-name="cedilla" unicode="&#xb8;" horiz-adv-x="500" 
d="M212 3h57l-17 -66c53 -4 93 -31 93 -82c0 -73 -67 -97 -122 -97c-33 0 -67 8 -90 18l16 52c15 -5 44 -13 67 -13c35 0 48 17 48 37c0 31 -35 38 -88 38z" />
    <glyph glyph-name="tilde" unicode="&#x2dc;" horiz-adv-x="500" 
d="M133 596l-48 35c25 55 63 79 102 79c46 0 96 -28 134 -28c15 0 32 12 44 32l54 -29c-23 -60 -55 -87 -103 -87c-41 0 -92 27 -125 27c-27 0 -37 -5 -58 -29z" />
    <glyph glyph-name="perthousand" unicode="&#x2030;" horiz-adv-x="924" 
d="M760 297c79 0 134 -48 134 -153c0 -104 -55 -158 -140 -158s-133 53 -133 155s58 156 139 156zM756 49c32 0 60 20 60 94c0 70 -26 90 -58 90c-34 0 -58 -23 -58 -95c0 -67 22 -89 56 -89zM451 297c78 0 134 -48 134 -153c0 -104 -56 -158 -140 -158
c-85 0 -133 53 -133 155s58 156 139 156zM447 49c31 0 59 20 59 94c0 70 -25 90 -57 90c-35 0 -59 -23 -59 -95c0 -67 23 -89 57 -89zM170 657c79 0 134 -49 134 -153s-55 -158 -140 -158s-133 52 -133 155c0 101 58 156 139 156zM166 409c32 0 60 19 60 93
c0 71 -26 91 -58 91c-34 0 -58 -24 -58 -96c0 -66 22 -88 56 -88zM119 109l-55 67l441 368l57 -67z" />
    <glyph glyph-name="percent" unicode="%" horiz-adv-x="801" 
d="M615 351c92 0 154 -56 154 -179c0 -122 -59 -186 -159 -186s-154 62 -154 182c0 119 64 183 159 183zM611 55c38 0 70 24 70 114c0 87 -29 113 -68 113c-43 0 -70 -30 -70 -117c0 -84 29 -110 68 -110zM193 657c92 0 154 -56 154 -179c0 -122 -59 -186 -159 -186
s-154 62 -154 182c0 119 64 183 159 183zM189 361c38 0 70 24 70 114c0 87 -29 113 -68 113c-43 0 -70 -30 -70 -117c0 -84 29 -110 68 -110zM293 -9l-79 36l292 626l81 -34z" />
    <glyph glyph-name="onesuperior" unicode="&#xb9;" horiz-adv-x="316" 
d="M61 407l59 4c12 1 16 5 16 16v212l-81 -36l-29 57l125 71h73v-320l70 -3v-67h-233v66z" />
    <glyph glyph-name="twosuperior" unicode="&#xb2;" horiz-adv-x="337" 
d="M173 737c84 0 124 -44 124 -100c0 -48 -21 -79 -56 -120l-89 -101h158v-75h-275v58l124 144c25 30 44 52 44 80s-20 42 -47 42c-22 0 -34 -3 -43 -7c-14 -6 -14 -12 -14 -26v-45l-76 4v109c45 23 95 37 150 37z" />
    <glyph glyph-name="threesuperior" unicode="&#xb3;" horiz-adv-x="337" 
d="M98 571h65c22 13 38 30 38 55c0 31 -19 41 -50 41c-15 0 -27 -2 -36 -5c-13 -4 -13 -10 -13 -22v-33l-70 5v95c33 16 84 30 134 30c80 0 122 -41 122 -96c0 -43 -22 -73 -57 -97c52 -16 64 -53 64 -85c0 -70 -47 -123 -146 -123c-49 0 -101 16 -125 31l23 65
c27 -14 67 -26 98 -26c34 0 63 10 63 47c0 36 -24 52 -84 52h-32z" />
    <glyph glyph-name="onehalf" unicode="&#xbd;" horiz-adv-x="825" 
d="M64 327l59 4c12 1 16 5 16 16v212l-81 -36l-29 57l125 71h73v-320l70 -3v-67h-233v66zM277 -41l-76 35l324 692l78 -33zM647 396c84 0 124 -44 124 -100c0 -48 -21 -79 -56 -120l-89 -101h158v-75h-275v58l124 144c25 30 44 52 44 80s-20 42 -47 42c-22 0 -34 -3 -43 -7
c-14 -6 -14 -12 -14 -26v-45l-76 4v109c45 23 95 37 150 37z" />
    <glyph glyph-name="onequarter" unicode="&#xbc;" horiz-adv-x="825" 
d="M62 327l59 4c12 1 16 5 16 16v212l-81 -36l-29 57l125 71h73v-320l70 -3v-67h-233v66zM284 -41l-76 35l324 692l78 -33zM624 86v27h-152v58l112 232l69 -32l-92 -189h68l29 76h53v-76h61v-71h-61v-41l71 -3v-67h-233v66l59 4c12 1 16 5 16 16z" />
    <glyph glyph-name="threequarters" unicode="&#xbe;" horiz-adv-x="825" 
d="M124 491h65c22 13 38 30 38 55c0 31 -19 41 -50 41c-15 0 -27 -2 -36 -5c-13 -4 -13 -10 -13 -22v-33l-70 5v95c33 16 84 30 134 30c80 0 122 -41 122 -96c0 -43 -22 -73 -57 -97c52 -16 64 -53 64 -85c0 -70 -47 -123 -146 -123c-49 0 -101 16 -125 31l23 65
c27 -14 67 -26 98 -26c34 0 63 10 63 47c0 36 -24 52 -84 52h-32zM294 -41l-76 35l324 692l78 -33zM635 86v27h-152v58l112 232l69 -32l-92 -189h68l29 76h53v-76h61v-71h-61v-41l71 -3v-67h-233v66l59 4c12 1 16 5 16 16z" />
    <glyph glyph-name="less" unicode="&#x3c;" 
d="M434 537l40 -89l-273 -126l275 -132l-42 -90l-366 180v78z" />
    <glyph glyph-name="equal" unicode="=" 
d="M470 450v-96h-405v96h405zM470 259v-97h-405v97h405z" />
    <glyph glyph-name="greater" unicode="&#x3e;" 
d="M70 448l40 89l366 -179v-78l-366 -180l-42 90l275 132z" />
    <glyph glyph-name="logicalnot" unicode="&#xac;" 
d="M385 171v144h-333v97h429v-241h-96z" />
    <glyph glyph-name="plus" unicode="+" 
d="M216 364v161h102v-161h154v-98h-154v-160h-102v160h-154v98h154z" />
    <glyph glyph-name="plusminus" unicode="&#xb1;" 
d="M214 364v156h102v-156h154v-98h-154v-134h154v-97h-405v97h149v134h-149v98h149z" />
    <glyph glyph-name="divide" unicode="&#xf7;" 
d="M204 128c0 36 24 67 64 67c41 0 66 -27 66 -66s-26 -69 -65 -69c-42 0 -65 27 -65 68zM204 505c0 36 24 67 64 67c41 0 66 -27 66 -66s-26 -69 -65 -69c-42 0 -65 27 -65 68zM470 362v-96h-405v96h405z" />
    <glyph glyph-name="multiply" unicode="&#xd7;" 
d="M197 314l-114 114l72 72l114 -114l112 112l69 -69l-112 -113l113 -113l-72 -72l-113 113l-113 -113l-70 69z" />
    <glyph glyph-name="mu" unicode="&#xb5;" horiz-adv-x="584" 
d="M504 503v-400c0 -25 10 -33 26 -33c11 0 22 4 39 12l14 -70c-29 -16 -63 -24 -91 -24c-52 0 -76 26 -79 81c-21 -49 -71 -83 -129 -83c-41 0 -81 16 -103 49v-251h-107v719h112v-289c0 -86 22 -144 97 -144c70 0 107 65 107 161v272h114z" />
  </font>
</defs>
</svg>
